<?xml version="1.0" encoding="UTF-8" standalone="no"?>
<!DOCTYPE svg PUBLIC "-//W3C//DTD SVG 20010904//EN"
              "http://www.w3.org/TR/2001/REC-SVG-20010904/DTD/svg10.dtd">

<svg xmlns="http://www.w3.org/2000/svg"
     width="1024px" height="600px"
     viewBox="0 0 1024 600">
  <path id="path0"
        fill="#2c313a"
        d="M 920.97,188.51
           C 920.97,188.51 870.64,192.91 870.64,192.91
             871.08,192.48 871.52,192.05 871.93,191.63
             874.04,189.45 875.75,187.44 877.13,185.51
             877.13,185.51 888.19,170.11 888.19,170.11
             888.19,170.11 859.79,128.88 859.79,128.88
             859.84,128.47 859.88,128.07 859.93,127.68
             865.92,122.69 870.45,114.71 870.28,103.30
             870.24,99.27 869.67,94.59 868.48,88.52
             867.87,85.42 866.95,82.56 865.83,80.18
             866.04,76.69 865.84,73.51 865.25,70.61
             863.25,59.94 857.55,53.50 853.04,49.91
             846.50,44.77 838.20,42.35 829.62,43.10
             829.62,43.10 828.99,43.16 828.99,43.16
             822.64,43.83 808.30,47.48 800.62,66.22
             799.87,66.27 799.00,66.34 798.26,66.40
             798.26,66.40 793.92,66.84 793.92,66.84
             793.92,66.84 792.60,67.24 792.60,67.24
             792.01,67.24 791.41,67.24 790.80,67.25
             788.72,67.27 786.51,67.38 784.09,67.60
             784.09,67.60 784.05,67.60 784.05,67.60
             784.05,67.60 782.27,67.77 782.27,67.77
             768.49,69.21 757.94,78.75 754.75,92.69
             754.42,94.14 754.17,95.62 754.01,97.14
             753.78,97.19 753.55,97.24 753.33,97.29
             753.33,97.29 748.93,98.62 748.93,98.62
             748.51,98.78 748.08,98.95 747.66,99.12
             745.86,99.87 744.04,100.78 742.13,101.86
             742.13,101.86 738.80,103.76 738.80,103.76
             738.80,103.76 735.34,107.35 735.34,107.35
             732.38,110.67 729.72,113.86 727.48,116.79
             727.06,117.33 726.65,117.87 726.24,118.40
             726.24,118.40 725.99,117.85 725.99,117.85
             724.72,115.25 723.38,112.87 722.07,110.94
             719.78,107.43 717.22,104.55 714.45,102.38
             709.98,98.74 704.81,96.37 699.09,95.34
             695.55,94.69 691.83,94.55 687.53,94.93
             687.53,94.93 687.52,94.93 687.52,94.93
             687.52,94.93 686.70,95.01 686.70,95.01
             683.62,95.34 680.79,95.90 678.07,96.72
             675.87,97.38 673.88,98.11 671.99,98.95
             671.99,98.95 668.33,100.57 668.33,100.57
             668.33,100.57 664.43,103.96 664.43,103.96
             664.29,104.10 664.16,104.22 663.97,104.37
             663.88,104.44 663.79,104.51 663.70,104.58
             659.40,101.88 652.89,99.33 644.05,100.10
             644.05,100.10 644.04,100.10 644.04,100.10
             644.04,100.10 643.26,100.19 643.26,100.19
             635.17,101.15 627.86,105.12 622.69,111.35
             621.85,112.36 621.07,113.41 620.36,114.52
             617.27,113.93 614.04,113.77 610.74,114.05
             610.74,114.05 610.73,114.06 610.73,114.06
             610.73,114.06 609.95,114.14 609.95,114.14
             601.80,115.12 595.51,118.87 590.67,123.66
             585.45,120.85 579.49,119.65 573.29,120.19
             573.29,120.19 572.15,120.32 572.15,120.32
             564.78,121.21 557.87,124.35 552.10,129.33
             552.10,129.33 552.83,128.09 552.83,128.09
             552.83,128.09 552.68,122.22 552.68,122.22
             554.07,117.83 554.54,113.29 554.07,108.73
             554.07,108.69 554.07,108.66 554.07,108.62
             554.85,104.73 555.18,100.76 555.06,96.90
             554.98,92.58 554.46,88.07 553.56,83.59
             552.24,76.84 549.42,71.03 544.98,66.11
             538.40,59.09 529.33,55.70 519.14,56.59
             519.14,56.59 519.13,56.59 519.13,56.59
             512.57,57.28 506.56,59.62 501.28,63.52
             496.46,67.06 492.54,71.75 489.62,77.46
             489.62,77.46 488.33,80.44 488.33,80.44
             486.99,84.13 485.73,87.81 484.66,91.17
             482.56,97.41 480.85,102.68 479.43,107.33
             477.87,112.47 476.71,116.89 475.88,120.84
             475.42,122.81 475.18,124.66 474.97,126.68
             474.84,127.84 474.65,129.34 474.36,131.24
             474.36,131.24 474.24,132.18 474.24,132.18
             473.46,132.77 472.76,133.35 472.09,133.93
             472.09,133.93 470.09,135.88 470.09,135.88
             467.18,139.04 464.88,141.51 463.17,143.29
             460.60,145.96 459.08,147.65 457.91,149.13
             457.91,149.13 456.77,150.68 456.77,150.68
             455.87,152.01 454.83,153.43 453.64,154.95
             452.45,156.49 451.25,157.99 449.92,159.59
             447.96,161.40 446.34,163.24 444.98,165.20
             443.67,167.00 442.52,168.65 441.47,170.18
             441.31,170.27 441.15,170.37 440.98,170.46
             440.18,170.94 439.43,171.42 438.72,171.90
             437.30,169.73 435.63,167.80 433.83,166.01
             435.28,164.55 436.63,163.00 437.87,161.34
             441.00,157.09 443.21,152.25 444.48,146.76
             444.72,145.67 445.05,143.89 445.41,141.53
             445.72,139.49 446.04,136.89 446.37,133.65
             446.37,133.65 446.49,131.71 446.49,131.71
             446.52,130.46 446.57,128.91 446.65,127.05
             446.65,127.05 446.78,123.77 446.78,123.77
             446.78,123.77 446.12,120.54 446.12,120.54
             444.33,111.77 439.20,104.45 431.63,99.89
             425.78,96.40 418.78,94.89 411.23,95.55
             411.23,95.55 411.22,95.55 411.22,95.55
             411.22,95.55 410.67,95.61 410.67,95.61
             406.72,96.01 403.01,96.88 399.66,98.17
             396.30,99.47 393.37,101.09 390.75,103.06
             389.65,99.67 388.34,96.62 386.74,93.93
             380.30,83.19 369.43,77.39 357.39,78.45
             357.39,78.45 357.38,78.45 357.38,78.45
             357.38,78.45 356.75,78.51 356.75,78.51
             351.95,79.09 347.38,80.87 343.22,83.76
             342.51,84.24 341.61,84.87 340.49,85.66
             340.49,85.66 339.33,86.54 339.33,86.54
             334.68,90.24 330.61,94.29 327.29,98.49
             323.57,103.15 320.46,108.42 318.06,114.16
             318.06,114.16 317.94,114.46 317.94,114.46
             317.02,116.79 315.54,119.73 313.66,122.92
             311.26,127.01 308.50,131.40 305.51,135.92
             304.79,134.55 304.13,133.22 303.52,131.91
             302.43,129.56 301.68,127.43 301.17,125.11
             301.17,125.11 297.92,111.58 297.92,111.58
             298.33,107.02 298.17,103.06 297.47,99.67
             296.15,92.91 293.66,87.36 289.75,82.59
             283.20,74.74 273.67,70.74 263.47,71.63
             263.47,71.63 262.86,71.70 262.86,71.70
             257.65,72.29 252.82,74.27 248.72,77.45
             246.15,78.80 243.62,80.39 241.21,82.15
             238.68,84.00 236.21,86.14 233.86,88.51
             230.61,91.58 228.03,94.56 226.04,97.53
             221.61,104.04 219.57,111.26 220.14,118.44
             220.36,122.20 220.58,126.15 220.83,130.60
             220.83,130.60 220.96,132.41 220.96,132.41
             220.96,132.41 221.25,133.92 221.25,133.92
             221.48,135.12 221.79,136.30 222.17,137.46
             222.17,137.46 222.27,138.51 222.27,138.51
             222.36,139.45 222.45,140.37 222.53,141.24
             222.53,141.24 220.69,145.58 220.69,145.58
             220.69,145.58 224.38,154.84 224.38,154.84
             224.34,157.78 224.28,160.47 224.22,162.94
             224.12,167.37 224.14,171.22 224.28,174.42
             224.28,174.42 224.49,178.80 224.49,178.80
             224.49,178.80 226.07,182.92 226.07,182.92
             226.30,183.51 226.53,184.11 226.74,184.67
             226.96,186.35 227.22,189.31 227.36,194.25
             227.36,194.25 73.94,208.05 73.94,208.05
             45.44,210.61 24.29,235.89 26.78,264.39
             26.78,264.39 41.14,428.51 41.14,428.51
             43.64,457.08 68.92,478.30 97.49,475.80
             97.49,475.80 190.33,467.67 190.33,467.67
             189.20,468.77 188.07,469.87 187.05,471.05
             183.19,475.57 180.17,480.74 178.08,486.41
             175.75,492.72 174.86,499.50 175.44,506.63
             176.07,513.98 178.03,520.68 181.25,526.49
             184.42,532.27 188.59,537.23 193.65,541.23
             200.14,546.37 207.95,550.00 216.90,552.05
             224.71,553.82 233.37,554.33 242.69,553.56
             242.69,553.56 366.95,542.71 366.95,542.71
             366.95,542.71 365.62,527.44 365.62,527.44
             365.62,527.44 415.65,548.85 415.65,548.85
             415.65,548.85 423.92,524.44 423.92,524.44
             423.95,524.39 423.97,524.32 424.00,524.23
             424.00,524.23 434.85,547.47 434.85,547.47
             434.85,547.47 486.41,517.08 486.41,517.08
             486.41,517.08 488.33,530.65 488.33,530.65
             488.33,530.65 508.65,530.96 508.65,530.96
             509.01,530.97 510.25,530.95 512.36,530.90
             512.36,530.90 513.01,530.89 513.01,530.89
             515.42,530.82 517.75,530.70 520.03,530.50
             520.03,530.50 520.26,530.48 520.26,530.48
             525.23,530.05 529.90,529.15 534.11,527.81
             539.03,526.27 543.52,524.10 547.43,521.40
             551.11,518.87 554.26,515.86 556.83,512.41
             556.83,512.41 581.61,510.24 581.61,510.24
             581.61,510.24 583.37,522.64 583.37,522.64
             583.37,522.64 603.57,523.05 603.57,523.05
             603.99,523.06 605.53,523.05 608.03,522.98
             610.45,522.92 612.80,522.79 615.07,522.60
             615.07,522.60 615.38,522.57 615.38,522.57
             620.36,522.14 625.02,521.23 629.20,519.90
             634.09,518.35 638.57,516.19 642.53,513.47
             646.35,510.84 649.60,507.68 652.21,504.07
             652.21,504.07 680.64,501.58 680.64,501.58
             680.64,501.58 681.65,516.36 681.65,516.36
             681.65,516.36 736.77,511.71 736.77,511.71
             736.77,511.71 735.27,496.80 735.27,496.80
             735.27,496.80 771.12,493.66 771.12,493.66
             771.16,493.69 771.19,493.72 771.23,493.75
             777.72,498.88 785.52,502.50 794.41,504.53
             802.23,506.31 810.93,506.82 820.34,506.04
             820.34,506.04 843.34,504.05 843.34,504.05
             843.34,504.05 843.43,482.33 843.43,482.33
             843.43,481.15 843.45,480.07 843.47,479.25
             843.52,477.78 843.53,476.89 843.54,476.68
             843.54,476.68 843.75,459.89 843.75,459.89
             843.75,459.89 943.95,451.12 943.95,451.12
             972.52,448.62 993.73,423.35 991.23,394.77
             991.23,394.77 977.33,235.79 977.33,235.79
             974.83,207.22 949.55,186.01 920.97,188.51" />
  <path id="path10"
        fill="#4eb0e4"
        d="M 631.20,145.18
           C 631.20,145.18 631.11,145.46 631.11,145.46
             631.10,145.39 631.08,145.32 631.07,145.25
             631.04,145.07 631.00,144.89 630.96,144.71
             630.96,144.71 631.20,145.18 631.20,145.18 Z
           M 781.79,121.81
           C 782.46,122.02 783.17,122.22 783.99,122.44
             784.45,122.56 784.97,122.71 785.60,122.92
             785.60,122.92 788.14,123.61 788.14,123.61
             788.14,123.61 790.46,123.36 790.46,123.36
             790.99,123.31 791.73,123.26 792.62,123.21
             793.90,123.14 794.89,123.07 795.62,123.01
             795.62,123.01 795.64,123.00 795.64,123.00
             795.64,123.00 798.74,122.68 798.74,122.68
             796.55,127.78 794.24,132.54 791.86,136.85
             789.45,141.18 786.91,145.13 784.29,148.67
             784.24,146.36 784.13,143.36 783.95,139.45
             783.79,137.14 783.68,135.22 783.63,133.66
             783.55,131.23 783.41,129.70 783.15,128.39
             782.61,125.66 781.70,123.39 780.61,121.51
             781.00,121.62 781.39,121.73 781.79,121.81M 850.03,142.54
           C 850.03,142.54 841.86,151.16 841.86,151.16
             841.87,150.56 841.87,149.96 841.88,149.36
             842.47,140.96 842.95,135.07 843.43,130.23
             843.94,124.92 844.45,120.75 844.99,117.45
             847.89,116.60 854.34,113.51 854.18,102.98
             854.15,99.95 853.68,96.19 852.69,91.14
             852.30,89.17 851.73,87.44 851.01,86.01
             850.52,84.99 849.92,84.04 849.22,83.18
             849.93,79.18 849.99,75.86 849.42,73.06
             848.32,67.19 845.32,63.76 843.00,61.91
             839.59,59.24 835.38,58.03 830.83,58.43
             830.83,58.43 830.43,58.47 830.43,58.47
             824.56,59.09 816.80,62.94 813.14,77.75
             812.96,78.46 812.79,79.09 812.63,79.64
             812.63,79.64 806.38,81.51 806.38,81.51
             805.71,81.48 804.97,81.47 804.14,81.48
             802.83,81.49 801.32,81.57 799.60,81.72
             799.60,81.72 796.85,82.00 796.85,82.00
             796.85,82.00 794.59,82.70 794.59,82.70
             793.38,82.65 792.10,82.63 790.74,82.65
             789.04,82.67 787.25,82.76 785.36,82.92
             785.36,82.92 783.68,83.09 783.68,83.09
             776.75,83.81 771.63,88.54 769.98,95.74
             769.06,99.81 769.19,104.60 770.41,110.84
             770.58,111.69 770.83,112.51 771.16,113.30
             767.82,111.93 764.01,111.43 759.77,111.80
             759.77,111.80 759.45,112.32 759.45,112.32
             757.52,112.52 755.60,113.00 753.76,113.76
             752.56,114.26 751.32,114.88 749.97,115.66
             749.97,115.66 748.62,116.42 748.62,116.42
             748.62,116.42 747.18,117.91 747.18,117.91
             744.51,120.91 742.10,123.79 740.05,126.47
             738.08,129.02 736.33,131.36 734.84,133.42
             733.73,134.79 732.76,135.93 731.95,136.79
             731.18,137.60 730.48,138.27 729.86,138.81
             729.86,138.81 727.78,140.60 727.78,140.60
             727.78,140.60 726.79,143.15 726.79,143.15
             726.61,143.59 726.43,144.01 726.24,144.38
             726.24,144.38 725.77,144.95 725.77,144.95
             724.72,146.27 723.78,147.41 722.92,148.33
             722.15,149.16 721.50,149.84 720.97,150.32
             720.97,150.32 718.86,152.24 718.86,152.24
             718.86,152.24 718.21,154.14 718.21,154.14
             718.21,154.14 717.97,154.35 717.97,154.35
             716.85,155.32 715.27,156.61 713.20,158.23
             710.56,160.32 708.55,162.43 707.09,164.68
             706.35,165.80 705.74,166.95 705.25,168.09
             704.81,168.38 704.51,168.59 704.40,168.67
             703.37,169.39 702.02,170.11 700.49,170.76
             700.19,170.88 699.87,171.01 699.54,171.12
             702.52,167.15 704.98,163.52 707.01,160.09
             710.68,153.88 712.76,148.36 713.36,143.20
             713.36,143.20 713.73,139.76 713.73,139.76
             713.90,138.14 714.06,136.95 714.13,136.37
             714.49,133.99 714.27,131.49 712.11,125.68
             712.11,125.68 711.72,124.79 711.72,124.79
             710.78,122.84 709.79,121.10 708.79,119.62
             707.44,117.54 705.96,115.86 704.55,114.77
             702.15,112.80 699.36,111.51 696.25,110.95
             694.11,110.56 691.78,110.48 689.07,110.72
             689.07,110.72 688.37,110.79 688.37,110.79
             686.29,111.01 684.41,111.38 682.64,111.91
             681.09,112.38 679.71,112.88 678.41,113.46
             678.41,113.46 676.92,114.12 676.92,114.12
             676.92,114.12 675.29,115.53 675.29,115.53
             674.73,116.05 674.18,116.54 673.59,116.98
             672.27,117.99 671.06,119.05 670.00,120.14
             670.00,120.14 669.31,120.84 669.31,120.84
             669.31,120.84 668.58,121.94 668.58,121.94
             667.23,124.06 665.88,126.17 664.54,128.25
             663.82,129.36 663.12,130.42 662.43,131.43
             662.26,130.13 662.07,128.93 661.85,127.79
             661.11,123.99 659.12,120.80 656.08,118.56
             654.07,117.10 650.64,115.45 645.71,115.88
             645.71,115.88 645.14,115.94 645.14,115.94
             641.04,116.43 637.49,118.36 634.87,121.51
             632.61,124.22 631.26,127.62 630.85,131.62
             630.68,133.24 630.57,134.92 630.55,136.45
             630.55,136.45 630.36,142.37 630.36,142.37
             629.35,139.15 627.79,136.47 625.68,134.38
             622.29,131.00 617.58,129.38 612.41,129.83
             612.41,129.83 611.84,129.89 611.84,129.89
             601.35,131.15 595.43,142.08 591.31,154.30
             590.97,151.44 590.65,149.27 590.33,147.59
             589.53,143.59 587.30,140.18 584.24,138.28
             581.51,136.48 578.21,135.69 574.68,136.00
             574.68,136.00 574.06,136.07 574.06,136.07
             569.99,136.56 564.07,138.52 558.96,145.03
             555.79,149.09 553.21,154.52 551.07,161.65
             550.72,162.80 550.17,164.23 549.37,166.02
             548.60,167.74 547.61,169.69 546.40,171.85
             546.40,171.85 546.24,172.16 546.24,172.16
             545.00,174.56 543.84,176.55 542.88,177.89
             542.07,179.02 541.70,179.31 541.66,179.34
             539.79,180.73 538.23,181.97 536.86,183.15
             535.38,184.46 534.40,185.38 533.61,186.38
             532.84,185.51 532.15,184.67 531.55,183.88
             530.69,182.73 530.06,181.77 529.67,181.04
             529.67,181.03 529.45,180.57 529.14,179.30
             528.81,177.94 528.48,176.35 528.11,174.54
             528.11,174.54 530.72,148.84 530.72,148.84
             530.72,148.84 530.58,148.45 530.58,148.45
             530.58,148.45 531.80,146.44 531.80,146.44
             531.80,146.44 531.83,144.50 531.83,144.50
             531.83,144.50 533.94,137.37 533.94,137.37
             534.61,134.82 535.11,132.85 535.40,131.56
             535.80,129.79 536.17,127.71 535.94,125.50
             535.94,125.50 536.85,123.96 536.85,123.96
             536.85,123.96 536.77,120.78 536.77,120.78
             536.76,120.32 536.76,119.90 536.76,119.55
             537.03,118.92 537.28,118.28 537.49,117.64
             538.29,115.20 538.55,112.68 538.28,110.20
             538.19,109.17 538.13,108.28 538.10,107.31
             538.94,104.03 539.31,100.63 539.20,97.22
             539.14,93.85 538.73,90.28 537.99,86.63
             537.22,82.70 535.73,79.54 533.40,76.96
             530.17,73.51 525.83,71.92 520.81,72.36
             517.09,72.76 513.68,74.08 510.67,76.30
             507.87,78.36 505.55,81.15 503.75,84.68
             503.75,84.68 503.24,85.85 503.24,85.85
             501.96,89.38 500.78,92.82 499.69,96.23
             497.64,102.31 495.98,107.45 494.61,111.94
             493.16,116.70 492.10,120.76 491.36,124.29
             491.07,125.49 490.90,126.77 490.73,128.44
             490.59,129.75 490.37,131.45 490.05,133.57
             490.05,133.57 490.00,134.05 490.00,134.05
             489.86,135.40 489.68,136.50 489.46,137.43
             489.26,138.31 489.10,138.74 489.00,138.98
             489.00,138.98 487.74,142.18 487.74,142.18
             487.24,142.49 486.77,142.79 486.35,143.07
             484.64,144.20 483.48,145.04 482.56,145.85
             482.56,145.85 481.75,146.64 481.75,146.64
             478.75,149.89 476.37,152.44 474.61,154.28
             472.44,156.54 471.17,157.93 470.35,158.98
             470.35,158.98 469.90,159.58 469.90,159.58
             468.82,161.19 467.57,162.89 466.18,164.67
             464.78,166.47 463.37,168.23 461.79,170.14
             461.49,170.51 461.30,170.70 461.12,170.86
             459.75,172.06 458.73,173.19 457.94,174.35
             456.37,176.52 455.02,178.44 453.87,180.16
             453.40,180.87 452.98,181.51 452.61,182.12
             451.26,182.85 450.12,183.50 449.12,184.08
             446.59,185.59 445.06,186.84 443.83,188.41
             443.46,188.89 442.91,189.55 442.16,190.46
             441.01,191.84 439.82,193.53 438.50,195.64
             438.50,195.64 437.39,197.40 437.39,197.40
             437.39,197.40 436.36,198.74 436.36,198.74
             435.73,199.37 435.12,199.99 434.50,200.63
             433.72,199.05 433.06,197.80 432.53,196.91
             431.83,194.85 431.03,192.74 430.15,190.61
             429.21,188.32 428.23,186.07 427.23,183.84
             425.10,179.14 421.68,175.52 417.34,173.35
             413.51,171.44 409.25,170.68 404.65,171.08
             404.65,171.08 404.17,171.13 404.17,171.13
             401.35,171.42 398.72,172.37 396.38,173.96
             393.82,175.65 391.81,178.02 390.43,180.93
             389.85,182.01 388.17,184.58 383.49,189.67
             378.64,194.95 375.30,199.26 373.28,202.82
             373.28,202.82 373.26,202.61 373.26,202.61
             373.18,201.82 373.09,201.14 373.03,200.72
             372.93,198.74 372.92,196.93 372.99,195.49
             373.08,194.06 373.25,193.35 373.42,192.82
             374.06,190.74 374.62,188.62 375.09,186.52
             375.09,186.52 375.35,185.39 375.35,185.39
             375.35,185.39 375.33,182.23 375.33,182.23
             375.30,181.13 375.28,180.13 375.28,179.16
             375.28,177.66 375.26,176.42 375.23,175.64
             375.22,174.49 375.34,172.92 375.57,171.10
             375.87,168.75 376.25,166.01 376.69,162.90
             377.66,156.25 378.27,149.73 378.50,143.51
             378.73,137.34 378.65,131.33 378.27,125.66
             378.27,125.66 378.23,125.24 378.23,125.24
             377.88,121.99 377.62,118.70 377.41,115.38
             377.41,115.38 377.34,114.55 377.34,114.55
             377.34,114.55 377.22,113.95 377.22,113.95
             376.24,108.94 374.90,105.06 373.14,102.09
             368.46,94.29 361.72,93.99 359.02,94.23
             359.02,94.23 358.64,94.27 358.64,94.27
             356.41,94.53 354.30,95.38 352.20,96.84
             351.54,97.28 350.71,97.86 349.68,98.60
             349.68,98.60 349.22,98.94 349.22,98.94
             345.52,101.89 342.31,105.07 339.68,108.40
             336.88,111.90 334.54,115.89 332.70,120.28
             331.47,123.40 329.67,127.00 327.34,130.97
             324.73,135.39 321.76,140.12 318.51,145.01
             314.43,151.10 310.79,155.71 307.70,158.70
             306.24,160.12 305.24,160.85 304.69,161.20
             304.38,161.05 303.88,160.77 303.24,160.25
             301.63,158.95 298.99,156.19 295.50,150.48
             293.06,146.42 290.92,142.42 289.14,138.61
             287.54,135.18 286.43,131.98 285.74,128.81
             285.74,128.81 282.24,114.19 282.24,114.19
             282.05,113.41 281.93,112.91 281.91,112.90
             281.90,112.70 281.91,112.15 282.04,111.04
             282.40,107.65 282.36,104.91 281.89,102.69
             281.09,98.58 279.68,95.33 277.57,92.76
             274.39,88.95 269.81,87.00 265.00,87.42
             265.00,87.42 264.66,87.46 264.66,87.46
             261.93,87.77 259.44,88.94 257.43,90.86
             257.43,90.86 256.37,91.35 256.37,91.35
             254.40,92.37 252.45,93.59 250.57,94.96
             248.66,96.36 246.75,98.03 244.94,99.87
             242.46,102.19 240.57,104.34 239.16,106.45
             236.72,110.03 235.65,113.71 235.97,117.32
             236.20,121.16 236.42,125.19 236.65,129.44
             236.65,129.44 236.71,130.31 236.71,130.31
             236.71,130.31 236.83,130.95 236.83,130.95
             237.02,131.95 237.33,132.89 237.76,133.81
             237.76,133.81 238.06,137.00 238.06,137.00
             238.31,139.64 238.55,142.15 238.67,143.81
             238.67,143.81 237.84,145.76 237.84,145.76
             237.84,145.76 239.53,150.00 239.53,150.00
             239.80,150.66 240.05,151.31 240.29,151.94
             240.23,156.19 240.16,159.96 240.08,163.29
             239.99,167.36 240.00,170.86 240.13,173.68
             240.13,173.68 240.21,175.50 240.21,175.50
             240.21,175.50 240.87,177.19 240.87,177.19
             241.34,178.42 241.81,179.66 242.17,180.66
             242.75,183.90 243.12,188.93 243.27,195.57
             243.42,203.89 243.94,210.25 244.88,215.07
             245.14,216.27 245.58,217.55 246.31,219.23
             246.31,219.49 246.29,219.85 246.25,220.31
             246.07,222.85 246.05,224.62 246.17,226.09
             246.17,226.09 246.23,226.58 246.23,226.58
             246.70,230.06 247.18,233.78 247.66,237.47
             247.61,239.38 247.57,241.35 247.54,243.37
             247.54,243.37 247.51,246.04 247.51,246.04
             247.51,246.04 249.52,250.07 249.52,250.07
             249.52,250.07 249.59,252.63 249.59,252.63
             249.59,252.63 249.75,253.43 249.75,253.43
             250.53,257.48 253.23,260.79 256.95,262.29
             258.48,262.94 260.09,263.31 261.74,263.40
             261.74,263.40 263.93,263.52 263.93,263.52
             263.93,263.52 266.68,262.56 266.68,262.56
             268.33,261.99 269.77,261.49 271.00,261.09
             271.92,260.79 272.64,260.57 273.18,260.46
             273.18,260.46 273.57,260.37 273.57,260.37
             278.71,259.15 282.72,255.73 284.57,251.00
             285.83,247.81 286.17,244.14 285.58,239.74
             285.58,239.74 285.48,239.14 285.48,239.14
             285.44,238.95 285.11,237.00 284.76,229.10
             284.51,223.09 284.23,214.80 283.92,204.12
             283.84,201.91 283.76,199.81 283.69,197.83
             285.21,198.82 286.73,199.68 288.23,200.38
             293.20,202.72 298.27,203.68 303.32,203.24
             303.32,203.24 303.85,203.19 303.85,203.19
             308.26,202.72 312.67,201.08 316.95,198.29
             320.50,196.01 323.30,193.33 325.26,190.33
             325.26,190.33 327.03,189.00 327.03,189.00
             327.95,188.29 328.72,187.71 329.36,187.23
             329.36,187.23 330.36,186.49 330.36,186.49
             330.36,186.49 335.56,180.04 335.56,180.04
             335.54,188.46 335.58,194.69 335.62,198.72
             335.72,207.35 335.91,209.97 336.08,211.34
             336.65,217.50 336.99,222.83 337.07,227.19
             337.17,232.18 336.76,234.37 336.63,234.90
             336.27,236.36 336.15,237.91 336.25,239.63
             336.25,239.63 336.32,240.49 336.32,240.49
             336.32,240.49 336.44,241.13 336.44,241.13
             337.37,245.79 339.91,248.41 341.87,249.78
             344.50,251.62 347.56,252.40 351.02,252.10
             355.02,251.67 357.77,249.40 359.52,247.72
             360.79,246.45 362.11,244.84 363.60,242.73
             363.60,242.73 364.04,242.05 364.04,242.05
             364.84,240.70 365.33,240.21 365.39,240.15
             365.39,240.15 369.61,238.32 369.61,238.32
             369.61,238.32 371.19,233.53 371.19,233.53
             371.84,231.57 372.22,229.74 372.28,228.31
             372.52,224.96 372.73,221.54 372.93,218.09
             372.93,218.09 375.21,219.26 375.21,219.26
             375.97,220.52 376.69,221.66 377.41,222.73
             377.97,223.54 378.45,224.28 379.03,225.15
             379.03,225.15 388.31,239.24 388.31,239.24
             388.31,239.24 397.70,225.96 397.70,225.96
             398.20,225.25 398.67,224.61 399.10,224.03
             399.10,224.03 399.66,224.57 399.66,224.57
             404.52,232.64 408.40,237.05 412.62,239.30
             416.86,241.57 422.52,242.26 430.97,241.52
             431.61,241.46 432.26,241.40 432.86,241.33
             435.79,241.03 438.78,239.86 442.27,237.67
             442.98,237.22 443.73,236.73 444.48,236.19
             446.10,239.68 448.43,242.46 451.43,244.48
             455.64,247.34 460.90,248.51 467.08,247.97
             467.08,247.97 467.74,247.91 467.74,247.91
             471.92,247.46 476.15,245.62 480.30,242.43
             483.82,239.76 487.16,236.13 490.52,231.35
             492.57,228.50 494.61,225.61 496.65,222.63
             498.55,219.88 500.40,217.14 502.25,214.42
             502.25,214.42 502.61,213.87 502.61,213.87
             505.40,217.52 508.69,220.44 512.43,222.57
             518.36,225.97 525.26,227.36 532.98,226.68
             532.98,226.68 533.81,226.60 533.81,226.60
             537.64,226.19 540.89,225.34 543.76,223.99
             547.29,222.31 550.13,219.85 552.20,216.68
             553.67,214.45 554.85,212.71 555.78,211.45
             555.97,211.20 556.13,210.98 556.28,210.80
             556.28,210.80 562.17,206.49 562.17,206.49
             562.17,206.49 566.11,216.80 566.11,216.80
             570.44,228.21 572.03,230.66 574.87,232.64
             574.87,232.64 578.44,235.23 578.44,235.23
             578.44,235.23 580.38,235.93 580.38,235.93
             582.20,236.50 583.88,236.77 585.55,236.74
             586.16,236.73 586.80,236.70 587.47,236.64
             587.47,236.64 587.87,236.60 587.87,236.60
             590.92,236.27 593.67,235.44 596.04,234.14
             598.78,232.67 601.06,230.61 602.81,228.01
             602.81,228.01 603.69,226.69 603.69,226.69
             603.69,226.69 604.32,224.68 604.32,224.68
             604.58,223.71 604.89,222.74 605.30,221.64
             605.47,221.17 605.64,220.69 605.80,220.22
             611.05,226.60 617.12,227.60 621.52,227.22
             625.69,226.77 629.55,225.26 633.01,222.73
             635.99,220.56 638.69,217.64 641.04,214.03
             641.04,214.03 641.32,213.58 641.32,213.58
             641.57,213.15 642.32,211.79 643.54,209.47
             644.67,207.33 646.15,204.32 648.19,199.97
             649.42,197.25 650.53,194.52 651.49,191.83
             651.82,192.26 652.12,192.66 652.39,193.04
             653.31,194.30 653.69,194.99 653.82,195.23
             653.82,195.23 662.87,213.07 662.87,213.07
             662.87,213.07 668.49,203.77 668.49,203.77
             669.70,205.10 670.92,206.21 672.18,207.11
             675.12,209.31 678.53,210.88 682.35,211.77
             685.66,212.52 689.20,212.74 692.91,212.41
             692.91,212.41 693.67,212.34 693.67,212.34
             696.50,212.03 699.08,211.52 701.35,210.79
             702.96,210.27 704.49,209.60 705.89,208.81
             709.87,207.89 713.80,205.97 717.57,203.11
             721.25,200.33 725.36,196.15 729.78,190.68
             729.78,190.68 730.44,189.87 730.44,189.87
             730.44,189.87 731.54,187.75 731.54,187.75
             731.61,187.59 731.68,187.46 731.75,187.32
             731.99,188.20 732.35,189.11 732.92,190.34
             733.01,191.31 733.14,192.23 733.31,193.11
             734.09,197.02 735.28,200.67 736.89,204.00
             738.05,206.33 739.28,208.37 740.65,210.24
             741.22,211.91 742.05,213.45 743.13,214.82
             745.43,217.73 748.72,219.60 752.42,220.11
             752.42,220.11 755.49,220.53 755.49,220.53
             755.49,220.53 758.34,219.29 758.34,219.29
             759.72,218.70 761.00,218.12 762.07,217.63
             763.32,217.07 764.55,216.49 766.01,215.79
             767.76,214.89 769.40,213.67 771.04,212.04
             771.60,211.49 772.14,210.89 772.66,210.24
             772.66,210.24 773.76,209.90 773.76,209.90
             773.76,209.90 777.40,206.09 777.40,206.09
             778.79,204.62 780.08,203.28 781.27,202.04
             782.67,200.58 783.89,199.23 784.92,198.00
             786.83,196.51 788.57,195.11 790.14,193.83
             792.01,192.33 793.64,191.01 795.07,189.84
             795.07,189.84 796.48,188.69 796.48,188.69
             796.48,188.69 797.75,186.64 797.75,186.64
             797.90,186.36 798.09,186.10 798.33,185.82
             798.40,185.73 798.57,185.55 798.86,185.33
             798.86,185.33 800.92,183.74 800.92,183.74
             800.92,183.74 802.07,181.40 802.07,181.40
             802.27,181.00 802.45,180.64 802.62,180.32
             802.96,183.41 803.50,186.88 804.28,190.89
             805.52,197.19 808.17,202.05 812.17,205.32
             815.08,207.74 820.17,210.48 827.87,209.81
             827.87,209.81 828.39,209.76 828.39,209.76
             831.59,209.43 834.75,208.29 837.81,206.39
             840.57,204.66 843.17,202.15 845.33,199.16
             846.54,197.55 847.71,195.91 848.87,194.22
             849.84,192.79 850.83,191.37 851.76,190.02
             852.68,188.88 853.53,187.87 854.27,187.03
             855.09,186.12 855.87,185.19 856.36,184.51
             857.98,183.11 859.34,181.83 860.55,180.58
             862.10,178.99 863.31,177.57 864.25,176.26
             864.25,176.26 868.80,169.92 868.80,169.92
             868.80,169.92 850.03,142.54 850.03,142.54 Z" />
  <path id="path11"
        fill="#4eb0e4"
        d="M 386.69,156.16
           C 386.69,156.16 386.69,156.16 386.69,156.16
             388.91,159.67 391.80,162.07 395.28,163.30
             395.28,163.30 397.62,164.12 397.62,164.12
             397.62,164.12 400.63,163.82 400.63,163.82
             401.28,163.76 401.94,163.72 402.63,163.71
             403.71,163.69 404.84,163.68 406.06,163.68
             406.06,163.68 407.38,163.64 407.38,163.64
             409.43,163.46 411.45,162.80 413.69,161.59
             415.47,160.66 417.30,159.39 419.38,157.63
             421.60,155.95 423.52,154.04 425.09,151.94
             426.93,149.43 428.24,146.56 428.98,143.39
             429.17,142.51 429.43,141.07 429.73,139.10
             430.01,137.28 430.29,134.96 430.58,132.06
             430.58,132.06 430.63,131.30 430.63,131.30
             430.67,129.98 430.72,128.35 430.80,126.40
             430.80,126.40 430.85,125.05 430.85,125.05
             430.85,125.05 430.58,123.72 430.58,123.72
             429.69,119.35 427.17,115.72 423.49,113.51
             420.49,111.71 416.88,110.98 412.76,111.34
             412.76,111.34 412.29,111.39 412.29,111.39
             409.74,111.65 407.41,112.19 405.35,112.99
             402.94,113.91 400.97,115.06 399.31,116.50
             399.31,116.50 398.34,117.35 398.34,117.35
             398.34,117.35 397.35,118.74 397.35,118.74
             396.66,119.78 396.01,120.77 395.41,121.70
             392.41,123.56 389.74,126.44 387.23,130.48
             383.55,136.49 382.23,141.81 383.21,146.74
             383.93,150.49 385.07,153.57 386.69,156.16" />
  <path id="path12"
        fill="#4eb0e4"
        d="M 922.35,204.31
           C 922.35,204.31 812.53,213.92 812.53,213.92
             799.85,215.03 789.28,222.61 783.73,233.10
             776.44,223.73 764.71,218.10 752.03,219.21
             752.03,219.21 645.50,228.53 645.50,228.53
             635.63,229.40 627.04,234.18 621.09,241.19
             621.09,241.19 620.17,230.75 620.17,230.75
             620.17,230.75 547.90,237.07 547.90,237.07
             547.90,237.07 548.83,247.74 548.83,247.74
             541.73,241.73 532.33,238.44 522.35,239.31
             522.35,239.31 415.82,248.63 415.82,248.63
             402.87,249.76 392.13,257.64 386.68,268.48
             379.43,258.76 367.48,252.86 354.55,253.99
             354.55,253.99 222.64,265.53 222.64,265.53
             222.64,265.53 217.63,211.05 217.63,211.05
             217.63,211.05 75.36,223.85 75.36,223.85
             55.55,225.63 40.85,243.20 42.58,263.01
             42.58,263.01 44.17,281.14 44.17,281.14
             44.17,281.14 45.83,300.09 45.83,300.09
             45.83,300.09 56.94,427.13 56.94,427.13
             58.68,446.99 76.25,461.73 96.11,459.99
             96.11,459.99 203.50,450.60 203.50,450.60
             213.02,449.76 221.65,445.27 227.78,437.94
             229.54,435.85 231.00,433.57 232.21,431.20
             239.49,440.69 251.28,446.42 264.06,445.30
             264.06,445.30 370.79,435.96 370.79,435.96
             380.17,435.14 388.67,430.78 394.84,423.71
             394.84,423.71 395.72,433.78 395.72,433.78
             395.72,433.78 563.82,419.07 563.82,419.07
             563.82,419.07 574.28,418.16 574.28,418.16
             574.28,418.16 625.41,413.69 625.41,413.69
             625.41,413.69 636.10,412.75 636.10,412.75
             636.10,412.75 697.71,407.36 697.71,407.36
             697.71,407.36 696.72,396.01 696.72,396.01
             696.72,396.01 729.97,393.10 729.97,393.10
             729.97,393.10 730.96,404.45 730.96,404.45
             730.96,404.45 803.97,398.06 803.97,398.06
             803.97,398.06 803.12,388.39 803.12,388.39
             810.08,393.81 818.99,396.75 828.45,395.92
             828.45,395.92 839.42,394.96 839.42,394.96
             839.42,394.96 843.89,443.95 843.89,443.95
             843.89,443.95 942.56,435.32 942.56,435.32
             962.42,433.58 977.17,416.01 975.43,396.16
             975.43,396.16 961.52,237.17 961.52,237.17
             959.78,217.32 942.21,202.57 922.35,204.31" />
  <path id="path13"
        fill="#ffeb4b"
        d="M 250.06,537.00
           C 250.06,537.00 241.32,537.75 241.32,537.75
             233.66,538.39 226.64,537.99 220.41,536.58
             213.81,535.07 208.12,532.45 203.50,528.80
             200.11,526.12 197.30,522.78 195.17,518.87
             193.01,514.97 191.68,510.39 191.25,505.29
             190.86,500.52 191.44,496.03 192.96,491.91
             194.41,487.99 196.48,484.44 199.12,481.35
             202.85,476.99 207.97,473.37 214.33,470.58
             220.38,467.92 226.99,466.28 234.07,465.70
             234.07,465.70 234.74,465.64 234.74,465.64
             234.74,465.64 243.23,464.94 243.23,464.94
             243.23,464.94 244.47,472.40 244.47,472.40
             244.53,472.76 244.62,473.33 244.74,474.07
             244.74,474.07 244.94,475.29 244.94,475.29
             245.07,476.11 245.22,476.98 245.38,477.91
             245.38,477.91 246.89,486.43 246.89,486.43
             246.89,486.43 237.04,487.29 237.04,487.29
             233.87,487.57 230.72,488.15 227.52,489.07
             224.63,489.90 222.20,490.97 220.29,492.25
             218.06,493.75 216.46,495.47 215.43,497.51
             214.44,499.45 214.04,501.40 214.22,503.49
             214.41,505.83 215.09,507.82 216.28,509.58
             217.42,511.25 219.21,512.62 221.74,513.77
             224.19,514.89 226.91,515.63 229.89,515.98
             233.17,516.37 236.42,516.44 239.56,516.18
             239.56,516.18 240.34,516.11 240.34,516.11
             240.61,516.08 240.86,516.06 241.11,516.02
             241.11,516.02 250.52,514.70 250.52,514.70
             250.52,514.70 250.13,524.20 250.13,524.20
             250.12,524.43 250.10,525.07 250.08,526.14
             250.08,526.14 250.08,526.25 250.08,526.25
             250.04,527.30 250.04,528.46 250.04,529.71
             250.04,529.71 250.06,537.00 250.06,537.00 Z" />
  <path id="path14"
        fill="#ffeb4b"
        d="M 349.71,527.88
           C 349.71,527.88 341.85,528.57 341.85,528.57
             341.51,528.60 339.70,528.73 336.44,528.98
             333.24,529.22 329.16,529.54 324.20,529.95
             320.94,530.23 317.85,530.49 314.92,530.77
             311.95,531.04 309.42,531.27 307.37,531.44
             307.37,531.44 299.36,532.13 299.36,532.13
             299.36,532.13 297.74,509.76 297.74,509.76
             297.38,504.94 297.00,500.20 296.61,495.56
             295.97,487.82 295.45,481.91 295.05,477.85
             294.65,473.77 294.37,470.89 294.22,469.25
             294.22,469.25 293.46,461.26 293.46,461.26
             293.46,461.26 316.42,459.34 316.42,459.34
             316.42,459.34 316.96,467.38 316.96,467.38
             317.20,470.90 317.50,474.96 317.85,479.57
             318.20,484.19 318.51,487.96 318.76,490.91
             319.34,498.03 319.85,503.98 320.27,508.76
             320.27,508.76 321.02,508.70 321.02,508.70
             325.98,508.30 330.31,507.91 333.98,507.56
             333.98,507.56 337.50,507.23 337.50,507.23
             339.05,507.09 339.91,507.01 340.09,506.99
             340.09,506.99 347.95,506.40 347.95,506.40
             347.95,506.40 349.71,527.88 349.71,527.88 Z" />
  <path id="path15"
        fill="#ffeb4b"
        d="M 441.70,524.64
           C 441.70,524.64 437.93,516.58 437.93,516.58
             437.76,516.24 436.74,514.37 434.96,511.12
             433.52,508.49 431.75,505.31 429.65,501.59
             429.65,501.59 414.87,502.81 414.87,502.81
             413.27,507.19 411.99,510.73 411.01,513.44
             409.72,517.01 409.02,518.99 408.88,519.40
             408.88,519.40 406.13,527.52 406.13,527.52
             406.13,527.52 385.21,518.57 385.21,518.57
             385.21,518.57 388.15,511.35 388.15,511.35
             388.66,510.10 390.86,504.34 395.52,491.94
             399.87,480.37 404.38,468.21 409.03,455.47
             409.03,455.47 410.77,450.70 410.77,450.70
             410.77,450.70 426.39,449.43 426.39,449.43
             426.39,449.43 428.87,453.87 428.87,453.87
             435.37,465.47 441.91,477.00 448.32,488.13
             448.32,488.13 448.32,488.14 448.32,488.14
             448.32,488.14 455.01,499.77 455.01,499.77
             457.09,503.37 458.20,505.30 458.34,505.56
             458.34,505.56 461.96,512.17 461.96,512.17
             461.96,512.17 441.70,524.64 441.70,524.64 Z" />
  <path id="path16"
        fill="#ffeb4b"
        d="M 518.88,514.68
           C 518.88,514.68 518.65,514.70 518.65,514.70
             516.71,514.86 514.69,514.97 512.60,515.03
             512.60,515.03 511.94,515.04 511.94,515.04
             510.23,515.08 509.21,515.11 508.91,515.10
             508.91,515.10 502.13,515.00 502.13,515.00
             502.13,515.00 499.00,492.94 499.00,492.94
             499.00,492.94 508.53,493.35 508.53,493.35
             508.91,493.36 509.90,493.37 511.51,493.37
             513.06,493.38 514.97,493.29 517.22,493.10
             517.22,493.10 517.24,493.10 517.24,493.10
             517.95,493.03 519.31,492.83 521.69,492.25
             523.95,491.68 524.75,491.24 524.89,491.16
             525.14,491.01 525.33,490.88 525.47,490.77
             525.47,490.77 525.47,490.76 525.47,490.75
             525.40,490.74 524.88,490.31 523.61,489.71
             522.48,489.17 520.93,488.54 518.97,487.83
             516.55,486.97 514.27,486.00 512.20,484.98
             508.09,482.98 504.86,480.43 502.71,477.44
             500.48,474.35 499.18,470.78 498.87,466.87
             498.53,462.94 499.17,459.27 500.77,456.03
             502.17,453.16 504.12,450.61 506.57,448.46
             509.03,446.31 512.06,444.61 515.57,443.40
             518.72,442.32 522.23,441.58 526.07,441.30
             527.96,441.14 529.87,441.03 531.81,440.98
             533.86,440.91 535.08,440.90 535.36,440.91
             535.36,440.91 541.73,441.13 541.73,441.13
             541.73,441.13 545.72,462.74 545.72,462.74
             545.72,462.74 533.02,462.66 533.02,462.66
             531.43,462.64 529.44,462.74 527.08,462.93
             527.08,462.93 527.02,462.94 527.02,462.94
             525.98,463.03 524.93,463.23 523.83,463.56
             523.26,463.72 522.76,463.91 522.34,464.14
             522.68,464.34 523.15,464.60 523.79,464.91
             524.80,465.40 526.17,465.97 527.92,466.62
             530.10,467.44 532.25,468.34 534.31,469.31
             538.40,471.25 541.62,473.69 543.94,476.60
             546.52,479.80 548.02,483.62 548.37,487.91
             548.73,492.24 547.95,496.27 546.05,499.86
             544.26,503.24 541.71,506.08 538.46,508.32
             535.82,510.14 532.75,511.61 529.35,512.68
             526.22,513.67 522.69,514.35 518.88,514.68" />
  <path id="path17"
        fill="#ffeb4b"
        d="M 614.00,506.77
           C 614.00,506.77 613.69,506.80 613.69,506.80
             611.76,506.96 609.74,507.07 607.64,507.12
             605.53,507.18 604.27,507.20 603.93,507.19
             603.93,507.19 597.18,507.05 597.18,507.05
             597.18,507.05 594.04,484.84 594.04,484.84
             594.04,484.84 603.74,485.44 603.74,485.44
             604.12,485.46 605.05,485.47 606.54,485.47
             608.17,485.47 610.09,485.38 612.28,485.20
             613.01,485.08 614.27,484.97 616.72,484.35
             619.05,483.77 619.85,483.32 619.94,483.27
             620.19,483.12 620.39,482.98 620.53,482.87
             620.53,482.86 620.52,482.86 620.52,482.85
             620.46,482.84 619.94,482.41 618.67,481.81
             617.58,481.28 616.06,480.68 614.02,479.94
             611.54,479.04 609.27,478.08 607.26,477.08
             603.15,475.08 599.94,472.54 597.78,469.56
             595.56,466.49 594.26,462.94 593.93,459.00
             593.60,455.00 594.24,451.36 595.82,448.14
             597.25,445.25 599.20,442.71 601.62,440.57
             604.11,438.40 607.13,436.71 610.62,435.50
             613.75,434.42 617.27,433.71 621.11,433.39
             623.02,433.24 624.93,433.12 626.86,433.07
             628.97,433.01 630.19,433.00 630.48,433.02
             630.48,433.02 636.80,433.29 636.80,433.29
             636.80,433.29 640.77,454.86 640.77,454.86
             640.77,454.86 628.08,454.76 628.08,454.76
             626.51,454.74 624.52,454.83 622.13,455.03
             621.09,455.10 620.03,455.32 618.89,455.65
             618.33,455.82 617.82,456.02 617.39,456.24
             617.73,456.44 618.20,456.70 618.83,457.00
             619.86,457.50 621.23,458.07 622.98,458.72
             625.23,459.57 627.38,460.47 629.38,461.41
             633.41,463.32 636.63,465.76 638.98,468.67
             641.57,471.91 643.07,475.71 643.43,479.99
             643.79,484.35 643.00,488.37 641.10,491.95
             639.33,495.32 636.79,498.16 633.53,500.41
             630.88,502.23 627.81,503.70 624.42,504.77
             621.31,505.76 617.81,506.44 614.00,506.77" />
  <path id="path18"
        fill="#ffeb4b"
        d="M 719.37,497.25
           C 719.37,497.25 696.38,499.19 696.38,499.19
             696.38,499.19 695.71,489.53 695.71,489.53
             695.60,487.82 695.44,485.43 695.22,482.36
             694.92,478.13 694.45,472.10 693.80,464.24
             693.54,461.13 693.19,457.04 692.74,451.98
             692.29,446.94 691.80,441.69 691.26,436.27
             691.26,436.27 690.47,428.24 690.47,428.24
             690.47,428.24 713.45,426.35 713.45,426.35
             713.45,426.35 714.00,434.37 714.00,434.37
             714.27,438.28 714.61,442.82 715.00,448.01
             715.37,453.21 715.70,457.43 715.98,460.70
             716.67,468.99 717.23,475.41 717.67,479.96
             718.10,484.51 718.40,487.60 718.56,489.23
             718.56,489.23 719.37,497.25 719.37,497.25 Z" />
  <path id="path19"
        fill="#ffeb4b"
        d="M 827.53,489.49
           C 827.53,489.49 818.97,490.24 818.97,490.24
             811.19,490.88 804.17,490.48 797.94,489.06
             791.36,487.56 785.68,484.95 781.06,481.30
             777.64,478.58 774.84,475.25 772.71,471.37
             770.54,467.44 769.22,462.85 768.79,457.77
             768.40,453.04 768.97,448.55 770.50,444.41
             771.93,440.52 773.99,436.97 776.62,433.86
             780.41,429.46 785.53,425.85 791.87,423.07
             797.93,420.41 804.44,418.81 811.61,418.18
             811.61,418.18 821.03,417.37 821.03,417.37
             821.03,417.37 822.02,424.90 822.02,424.90
             822.08,425.33 822.19,426.02 822.35,426.97
             822.51,428.07 822.69,429.11 822.89,430.22
             822.89,430.22 824.35,438.72 824.35,438.72
             824.35,438.72 815.79,439.68 815.79,439.68
             815.79,439.68 814.95,439.75 814.95,439.75
             814.95,439.75 814.36,439.80 814.36,439.80
             811.43,440.08 808.25,440.64 805.05,441.56
             802.17,442.39 799.74,443.46 797.84,444.73
             795.59,446.24 793.99,447.97 792.95,450.01
             791.97,451.94 791.58,453.88 791.76,455.94
             791.95,458.32 792.62,460.30 793.83,462.08
             794.94,463.72 796.78,465.13 799.30,466.27
             801.72,467.38 804.45,468.12 807.42,468.47
             810.70,468.86 813.96,468.93 817.11,468.67
             817.11,468.67 818.01,468.60 818.01,468.60
             818.02,468.59 818.25,468.58 818.48,468.54
             818.48,468.54 827.80,467.04 827.80,467.04
             827.80,467.04 827.67,476.47 827.67,476.47
             827.67,476.74 827.65,477.48 827.61,478.70
             827.58,479.79 827.57,480.97 827.56,482.25
             827.56,482.25 827.53,489.49 827.53,489.49 Z" />
  <path id="path30"
        fill="#ffeb4b"
        d="M 265.99,98.48
           C 267.17,98.38 268.18,98.84 269.05,99.88
             269.91,100.92 270.56,102.57 270.99,104.81
             271.24,106.00 271.23,107.68 271.00,109.85
             270.75,112.02 270.74,113.60 270.95,114.57
             271.01,114.99 271.40,116.60 272.05,119.39
             272.73,122.18 273.69,126.18 274.94,131.41
             275.77,135.18 277.14,139.15 279.08,143.30
             281.02,147.45 283.31,151.75 285.97,156.18
             289.50,161.96 292.93,166.19 296.24,168.87
             299.50,171.50 302.72,172.67 305.92,172.39
             305.98,172.38 306.05,172.38 306.12,172.37
             308.68,172.10 311.81,170.20 315.45,166.66
             319.09,163.13 323.19,157.97 327.74,151.19
             331.21,145.96 334.25,141.11 336.90,136.61
             339.54,132.10 341.58,128.02 343.03,124.36
             344.41,121.07 346.18,118.06 348.35,115.33
             350.52,112.59 353.11,110.03 356.13,107.63
             357.08,106.96 357.86,106.41 358.48,105.99
             359.09,105.57 359.60,105.34 359.97,105.29
             359.97,105.29 360.01,105.29 360.01,105.29
             361.34,105.17 362.54,106.00 363.61,107.79
             364.69,109.62 365.59,112.38 366.32,116.09
             366.55,119.57 366.83,123.01 367.18,126.41
             367.55,131.72 367.62,137.29 367.41,143.11
             367.19,148.91 366.63,154.98 365.71,161.30
             365.25,164.50 364.87,167.29 364.56,169.68
             364.26,172.07 364.12,174.08 364.13,175.73
             364.15,176.66 364.17,177.82 364.18,179.21
             364.17,180.61 364.22,182.23 364.26,184.08
             363.85,185.91 363.36,187.74 362.80,189.60
             362.31,191.08 362.03,192.83 361.91,194.83
             361.80,196.86 361.82,199.17 361.96,201.80
             362.05,202.29 362.13,202.93 362.21,203.71
             362.28,204.49 362.36,205.30 362.46,206.15
             362.12,213.47 361.70,220.59 361.20,227.51
             361.17,228.15 361.00,229.00 360.65,230.04
             359.72,230.43 358.73,231.14 357.66,232.18
             356.59,233.22 355.53,234.62 354.49,236.38
             353.40,237.93 352.46,239.07 351.69,239.84
             350.90,240.60 350.29,241.01 349.83,241.06
             349.83,241.06 349.75,241.07 349.75,241.07
             349.18,241.12 348.67,240.99 348.25,240.69
             347.80,240.38 347.50,239.80 347.34,238.96
             347.30,238.40 347.32,237.93 347.42,237.56
             348.00,235.07 348.26,231.54 348.18,226.98
             348.09,222.41 347.74,216.80 347.12,210.14
             346.93,208.74 346.79,204.89 346.73,198.60
             346.66,192.32 346.63,183.60 346.69,172.44
             346.65,170.66 346.62,168.47 346.62,165.85
             346.61,163.25 346.65,160.26 346.77,156.88
             346.96,155.15 347.13,153.65 347.21,152.39
             347.31,151.13 347.32,150.22 347.20,149.66
             347.07,148.96 346.83,148.46 346.51,148.17
             346.18,147.89 345.78,147.78 345.28,147.82
             345.28,147.82 345.22,147.83 345.22,147.83
             344.77,147.88 344.03,148.51 343.03,149.72
             342.04,150.95 340.83,152.73 339.44,155.09
             338.61,156.40 337.78,157.77 336.94,159.22
             336.10,160.67 335.19,162.09 334.23,163.48
             332.57,165.65 331.03,167.72 329.63,169.65
             329.63,169.65 322.74,178.32 322.74,178.32
             322.06,178.83 321.24,179.45 320.27,180.19
             319.29,180.94 318.11,181.81 316.77,182.82
             315.74,185.07 313.80,187.12 310.94,188.96
             308.09,190.81 305.33,191.87 302.69,192.15
             302.57,192.16 302.45,192.17 302.34,192.18
             299.26,192.45 296.14,191.83 292.97,190.34
             289.69,188.80 286.29,186.25 282.81,182.69
             281.24,180.92 279.66,179.16 278.12,177.40
             276.57,175.63 274.93,173.88 273.20,172.14
             273.20,172.14 272.65,172.30 272.65,172.30
             272.35,172.76 272.20,175.67 272.21,181.03
             272.22,186.38 272.42,194.23 272.83,204.56
             273.14,215.18 273.41,223.51 273.66,229.56
             273.93,235.61 274.24,239.50 274.58,241.25
             274.90,243.65 274.78,245.55 274.24,246.92
             273.70,248.29 272.61,249.19 270.99,249.57
             270.18,249.73 269.04,250.05 267.58,250.52
             266.12,251.00 264.38,251.61 262.35,252.31
             261.97,252.29 261.60,252.20 261.26,252.06
             260.92,251.92 260.72,251.67 260.65,251.32
             260.65,251.32 260.57,247.35 260.57,247.35
             260.57,247.35 258.65,243.49 258.65,243.49
             258.67,241.27 258.73,239.12 258.78,237.04
             258.25,232.81 257.74,228.82 257.24,225.09
             257.17,224.30 257.20,222.98 257.33,221.11
             257.47,219.24 257.45,217.85 257.26,216.93
             257.16,216.45 256.91,215.74 256.50,214.82
             256.09,213.90 255.84,213.19 255.73,212.71
             254.98,208.86 254.51,203.07 254.37,195.37
             254.20,187.67 253.74,181.86 252.96,177.93
             252.43,176.35 251.84,174.76 251.22,173.19
             251.11,170.62 251.09,167.41 251.18,163.54
             251.28,159.67 251.36,155.16 251.43,150.01
             250.95,148.69 250.42,147.31 249.85,145.89
             249.88,145.81 249.87,145.26 249.81,144.17
             249.74,142.54 249.48,139.75 249.10,135.78
             249.54,134.94 249.85,134.21 250.00,133.59
             250.16,132.96 250.29,132.40 250.42,131.88
             249.59,131.18 248.96,130.59 248.50,130.10
             248.07,129.61 247.80,129.19 247.73,128.84
             247.50,124.51 247.27,120.39 247.05,116.48
             246.92,115.43 247.34,114.16 248.34,112.70
             249.32,111.23 250.77,109.61 252.67,107.84
             254.15,106.32 255.63,105.02 257.13,103.93
             258.61,102.84 260.06,101.95 261.47,101.21
             263.39,100.37 264.50,99.72 264.80,99.25
             265.09,98.79 265.47,98.54 265.93,98.49
             265.93,98.49 265.99,98.48 265.99,98.48" />
  <path id="path31"
        fill="#ffeb4b"
        d="M 413.75,122.41
           C 415.49,122.25 416.84,122.47 417.80,123.04
             418.80,123.65 419.43,124.62 419.70,125.95
             419.62,127.96 419.57,129.64 419.53,131.01
             419.27,133.61 419.01,135.74 418.75,137.42
             418.50,139.09 418.29,140.29 418.13,141.02
             417.75,142.63 417.08,144.08 416.15,145.36
             415.18,146.64 413.97,147.82 412.50,148.91
             410.95,150.22 409.66,151.17 408.56,151.74
             407.62,152.25 406.90,152.53 406.41,152.58
             406.35,152.58 406.28,152.58 406.23,152.58
             404.92,152.58 403.66,152.59 402.47,152.61
             401.51,152.62 400.58,152.67 399.66,152.75
             399.43,152.77 399.20,152.79 398.96,152.82
             397.88,152.44 396.93,151.57 396.08,150.23
             395.24,148.89 394.57,147.04 394.12,144.65
             393.70,142.55 394.57,139.76 396.70,136.28
             398.86,132.80 400.96,130.84 403.03,130.40
             404.03,128.80 405.23,126.95 406.60,124.88
             407.26,124.31 408.16,123.80 409.32,123.35
             410.47,122.91 411.84,122.60 413.43,122.44
             413.54,122.42 413.64,122.41 413.75,122.41" />
  <path id="path32"
        fill="#ffeb4b"
        d="M 497.03,177.37
           C 495.54,181.64 493.02,186.90 489.45,193.14
             485.94,199.02 482.87,203.65 480.15,207.05
             477.46,210.45 475.03,212.59 472.89,213.45
             472.18,213.03 471.78,212.61 471.71,212.19
             472.20,209.99 472.72,208.11 473.26,206.55
             474.96,202.59 476.39,199.23 477.57,196.50
             478.72,193.76 479.70,191.82 480.48,190.66
             483.19,186.73 485.25,183.45 486.67,180.84
             488.10,178.22 488.96,176.33 489.27,175.15
             491.22,173.22 492.89,171.47 494.27,169.89
             495.68,168.32 496.84,166.93 497.76,165.77
             498.21,166.43 498.45,166.94 498.53,167.29
             499.02,169.74 498.51,173.10 497.03,177.37 Z
           M 650.94,129.92
           C 650.74,128.86 650.27,128.07 649.55,127.54
             648.86,127.04 647.91,126.83 646.71,126.94
             646.65,126.94 646.60,126.95 646.54,126.95
             645.25,127.09 644.20,127.65 643.39,128.63
             642.58,129.61 642.08,131.00 641.89,132.80
             641.75,134.11 641.67,135.46 641.64,136.85
             641.59,138.26 641.58,139.63 641.52,141.00
             641.52,141.00 643.05,144.05 643.05,144.05
             642.61,145.74 642.12,147.46 641.58,149.20
             641.02,150.94 640.60,152.64 640.32,154.31
             639.71,156.38 639.31,158.32 639.09,160.12
             638.85,161.94 638.74,163.60 638.72,165.10
             635.80,174.21 633.23,181.08 631.02,185.70
             628.78,190.34 626.93,192.74 625.41,192.90
             624.23,192.03 623.40,191.16 622.92,190.27
             622.53,189.45 622.25,188.73 622.08,188.11
             621.93,187.49 621.84,186.96 621.84,186.53
             620.96,179.33 620.36,174.03 620.04,170.63
             619.79,167.89 619.67,166.45 619.68,166.23
             619.37,165.78 619.06,165.33 618.74,164.87
             618.42,164.41 618.12,163.87 617.84,163.25
             617.93,160.53 617.98,157.88 618.01,155.30
             617.83,154.39 617.78,153.64 617.87,153.06
             617.94,152.49 618.12,152.07 618.38,151.83
             619.11,151.25 619.64,150.59 619.96,149.84
             620.27,149.10 620.34,148.26 620.17,147.35
             619.72,145.04 618.94,143.34 617.83,142.24
             616.76,141.17 615.29,140.72 613.40,140.89
             613.35,140.89 613.29,140.90 613.23,140.91
             608.43,141.42 603.78,149.95 599.21,166.53
             594.65,183.09 591.58,191.47 589.99,191.64
             589.99,191.64 588.68,190.92 588.68,190.92
             588.41,190.66 587.96,189.65 587.39,187.90
             586.81,186.14 586.04,183.66 585.11,180.47
             584.31,177.49 583.62,175.01 583.08,173.07
             582.56,171.13 582.18,169.67 581.99,168.68
             581.55,166.45 581.11,163.23 580.67,159.02
             580.22,154.81 579.82,151.72 579.44,149.77
             579.23,148.71 578.80,147.97 578.13,147.55
             577.49,147.13 576.67,146.97 575.68,147.06
             575.63,147.06 575.59,147.06 575.55,147.07
             572.58,147.39 569.97,148.98 567.71,151.87
             565.45,154.76 563.43,159.09 561.71,164.84
             561.20,166.55 560.46,168.44 559.51,170.55
             558.57,172.65 557.43,174.88 556.12,177.24
             554.60,180.18 553.19,182.57 551.89,184.40
             550.58,186.21 549.37,187.50 548.29,188.26
             546.60,189.51 545.24,190.59 544.21,191.48
             543.18,192.38 542.54,192.98 542.30,193.30
             542.32,193.32 542.33,193.34 542.35,193.36
             541.15,195.02 539.91,196.30 538.60,197.17
             537.26,198.06 535.88,198.59 534.43,198.75
             534.39,198.75 534.35,198.76 534.31,198.76
             533.06,198.87 531.83,198.70 530.61,198.24
             529.37,197.77 528.19,196.90 527.08,195.67
             525.34,193.86 523.86,192.13 522.64,190.51
             521.44,188.89 520.53,187.50 519.92,186.35
             519.32,185.27 518.80,183.79 518.35,181.91
             517.90,180.03 517.43,177.76 516.89,175.09
             516.89,175.09 519.43,150.16 519.43,150.16
             519.43,150.16 518.64,147.89 518.64,147.89
             519.13,146.84 519.53,145.89 519.87,145.07
             520.22,144.25 520.51,143.65 520.74,143.26
             520.75,142.91 520.98,141.99 521.43,140.51
             521.86,139.04 522.46,137.05 523.20,134.53
             523.83,132.17 524.29,130.36 524.57,129.07
             524.87,127.80 524.97,126.94 524.88,126.53
             524.77,125.89 524.64,125.28 524.52,124.68
             524.41,124.09 524.38,123.57 524.45,123.14
             524.45,123.14 525.67,121.07 525.67,121.07
             525.64,120.16 525.65,119.35 525.67,118.67
             525.70,117.99 525.64,117.40 525.55,116.91
             526.16,116.06 526.62,115.15 526.93,114.19
             527.25,113.22 527.34,112.25 527.22,111.26
             527.10,109.85 527.02,108.64 527.00,107.64
             526.93,106.64 526.99,105.89 527.11,105.38
             527.85,102.87 528.19,100.22 528.10,97.44
             528.04,94.66 527.70,91.76 527.09,88.75
             526.72,86.86 526.12,85.46 525.29,84.55
             524.47,83.67 523.41,83.28 522.07,83.40
             522.07,83.40 521.98,83.41 521.98,83.41
             520.24,83.59 518.66,84.21 517.25,85.25
             515.83,86.30 514.64,87.77 513.68,89.65
             512.33,93.37 511.19,96.75 510.21,99.77
             508.27,105.57 506.60,110.69 505.24,115.16
             503.88,119.63 502.86,123.51 502.18,126.80
             502.04,127.32 501.91,128.28 501.77,129.68
             501.61,131.10 501.38,132.93 501.04,135.18
             500.86,136.98 500.61,138.57 500.28,139.92
             499.97,141.28 499.61,142.45 499.18,143.42
             499.46,144.89 499.46,146.12 499.16,147.12
             498.83,148.12 498.23,148.88 497.34,149.41
             495.32,150.55 493.69,151.53 492.46,152.34
             491.23,153.15 490.38,153.76 489.91,154.17
             486.84,157.49 484.42,160.10 482.62,161.97
             480.82,163.84 479.65,165.12 479.09,165.83
             477.83,167.68 476.45,169.56 474.96,171.47
             473.49,173.37 471.99,175.23 470.49,177.03
             469.80,177.90 469.13,178.61 468.47,179.18
             467.81,179.76 467.33,180.27 467.04,180.73
             465.51,182.83 464.21,184.68 463.13,186.29
             462.06,187.91 461.33,189.13 460.95,189.96
             460.95,189.96 459.63,190.96 459.63,190.96
             457.59,192.03 456.01,192.92 454.81,193.61
             453.64,194.31 452.89,194.86 452.58,195.25
             452.15,195.80 451.53,196.56 450.71,197.54
             449.90,198.52 448.97,199.85 447.91,201.53
             447.91,201.53 447.77,202.62 447.77,202.62
             447.77,202.62 447.23,203.43 447.23,203.43
             447.23,203.43 447.27,203.49 447.27,203.49
             446.26,204.51 445.24,205.55 444.20,206.60
             443.12,207.68 442.11,208.73 441.15,209.77
             439.87,211.05 438.53,212.00 437.19,212.60
             435.84,213.22 434.47,213.59 433.12,213.74
             433.12,213.74 432.91,213.76 432.91,213.76
             431.85,213.85 430.94,213.78 430.17,213.56
             429.36,213.33 428.69,212.88 428.17,212.22
             427.71,211.85 426.81,210.28 425.51,207.52
             424.19,204.77 423.13,202.72 422.32,201.37
             421.58,199.16 420.76,196.97 419.88,194.83
             418.99,192.66 418.06,190.53 417.11,188.42
             416.03,186.03 414.45,184.32 412.38,183.29
             410.41,182.30 408.16,181.92 405.64,182.14
             405.53,182.15 405.42,182.16 405.31,182.17
             404.33,182.27 403.40,182.62 402.51,183.22
             401.61,183.81 400.90,184.71 400.36,185.91
             398.91,188.72 396.00,192.48 391.67,197.19
             387.33,201.90 384.39,205.67 382.85,208.47
             382.85,208.47 382.71,209.57 382.71,209.57
             382.71,209.57 382.18,210.37 382.18,210.37
             382.52,210.55 382.85,210.80 383.14,211.13
             383.43,211.45 383.70,211.82 383.94,212.22
             384.89,213.84 385.75,215.24 386.57,216.45
             387.38,217.64 388.06,218.68 388.63,219.55
             390.98,216.22 393.06,213.70 394.80,211.97
             396.55,210.25 398.04,209.32 399.26,209.20
             399.26,209.20 399.27,209.19 399.27,209.19
             399.72,209.16 400.35,209.49 401.18,210.22
             402.03,210.95 403.06,212.08 404.29,213.59
             405.25,214.56 406.12,215.40 406.87,216.10
             407.64,216.81 408.21,217.43 408.64,217.95
             412.46,224.40 415.53,228.26 417.87,229.51
             420.01,230.66 424.04,230.97 430.00,230.45
             430.56,230.40 431.14,230.35 431.73,230.28
             432.85,230.17 434.43,229.48 436.42,228.23
             438.43,226.98 440.76,225.14 443.47,222.71
             445.90,220.52 447.99,218.60 449.71,216.94
             451.39,215.33 452.73,213.91 453.72,212.68
             453.72,212.68 454.68,214.22 454.68,214.22
             454.96,215.62 454.73,217.84 454.01,220.89
             453.31,223.93 453.11,226.26 453.42,227.86
             454.11,231.36 455.51,233.85 457.66,235.29
             459.71,236.68 462.53,237.22 466.09,236.91
             466.25,236.90 466.41,236.88 466.57,236.86
             468.70,236.64 471.03,235.55 473.58,233.59
             476.14,231.65 478.80,228.73 481.51,224.87
             483.51,222.08 485.51,219.24 487.50,216.35
             489.48,213.46 491.43,210.59 493.36,207.73
             494.15,206.22 494.73,204.93 495.14,203.85
             495.55,202.76 495.80,201.86 495.89,201.14
             496.71,199.41 497.57,197.95 498.46,196.79
             499.35,195.62 500.20,194.71 501.01,194.05
             501.24,193.67 501.54,193.10 501.94,192.34
             503.53,193.75 504.72,195.08 505.51,196.35
             505.88,197.04 506.27,197.78 506.65,198.59
             507.04,199.42 507.50,200.37 508.03,201.45
             510.53,206.76 513.84,210.59 517.95,212.94
             521.90,215.20 526.58,216.10 531.99,215.62
             532.20,215.60 532.41,215.58 532.62,215.56
             535.21,215.28 537.32,214.75 538.99,213.97
             540.65,213.18 541.96,212.06 542.91,210.60
             544.52,208.14 545.83,206.23 546.84,204.87
             547.85,203.51 548.52,202.71 548.86,202.46
             548.85,202.43 548.82,202.41 548.81,202.38
             549.57,201.11 550.96,199.65 552.98,197.99
             555.06,196.31 556.49,194.89 557.27,193.73
             558.27,192.19 559.19,190.85 560.02,189.69
             560.84,188.53 561.52,187.56 562.07,186.78
             562.48,186.17 562.96,185.59 563.46,185.03
             563.96,184.48 564.58,183.94 565.25,183.45
             570.18,196.36 573.93,206.16 576.49,212.86
             579.04,219.56 580.69,223.16 581.40,223.65
             581.40,223.65 583.71,225.34 583.71,225.34
             584.38,225.55 584.92,225.65 585.34,225.64
             585.71,225.63 586.10,225.61 586.48,225.58
             586.48,225.58 586.66,225.56 586.66,225.56
             588.26,225.39 589.62,225.00 590.78,224.37
             591.94,223.74 592.86,222.90 593.59,221.81
             593.94,220.50 594.37,219.18 594.86,217.87
             595.33,216.57 595.75,215.26 596.11,213.93
             596.11,213.93 598.56,206.92 598.56,206.92
             598.97,205.87 599.22,204.88 599.30,203.94
             599.38,203.00 599.41,202.18 599.35,201.47
             600.61,198.40 601.70,195.57 602.67,192.97
             603.43,190.53 604.10,188.77 604.72,187.71
             605.31,186.64 605.81,186.09 606.18,186.05
             606.18,186.05 606.92,186.83 606.92,186.83
             607.03,187.46 607.03,188.39 606.89,189.63
             606.74,190.85 606.76,191.89 606.92,192.73
             608.51,200.85 610.44,206.87 612.73,210.77
             614.97,214.62 617.49,216.43 620.25,216.18
             620.25,216.18 620.34,216.18 620.34,216.18
             622.54,215.94 624.59,215.13 626.48,213.74
             628.37,212.37 630.12,210.45 631.73,207.99
             631.95,207.61 632.62,206.38 633.72,204.29
             634.82,202.21 636.26,199.25 638.07,195.41
             640.81,189.33 642.68,183.91 643.69,179.15
             645.49,175.32 647.00,171.30 648.22,167.09
             649.44,162.89 650.39,158.35 651.06,153.49
             651.68,149.21 652.00,145.10 652.00,141.17
             652.00,137.24 651.65,133.49 650.94,129.92
             650.94,129.92 650.94,129.92 650.94,129.92 Z" />
  <path id="path33"
        fill="#ffeb4b"
        d="M 680.67,160.09
           C 680.63,160.10 680.58,160.10 680.54,160.10
             680.01,160.15 679.64,160.09 679.42,159.95
             679.20,159.80 679.05,159.51 678.97,159.09
             678.59,157.21 679.42,154.10 681.42,149.76
             683.44,145.46 685.29,143.19 686.96,143.01
             686.96,143.01 686.99,143.01 686.99,143.01
             687.51,142.96 687.94,143.12 688.27,143.47
             688.60,143.82 688.83,144.32 688.97,144.95
             689.16,145.93 689.12,146.93 688.87,147.96
             688.59,148.99 688.12,150.04 687.39,151.12
             686.78,151.97 686.16,152.84 685.52,153.73
             684.88,154.62 684.22,155.46 683.51,156.25
             683.20,157.00 682.86,157.81 682.48,158.67
             682.11,159.53 681.51,160.00 680.67,160.09M 848.89,160.59
           C 844.59,165.13 841.23,168.56 838.78,170.89
             836.34,173.23 834.89,174.42 834.43,174.47
             834.43,174.47 834.38,174.47 834.38,174.47
             833.64,174.54 833.04,174.31 832.55,173.81
             832.07,173.29 831.72,172.47 831.50,171.35
             831.25,170.09 831.10,167.60 831.03,163.89
             830.95,160.19 830.94,155.33 831.01,149.31
             831.55,141.75 832.06,135.19 832.61,129.62
             833.15,124.07 833.71,119.46 834.31,115.83
             834.45,114.46 834.51,113.25 834.55,112.21
             834.56,111.17 834.59,110.29 834.61,109.57
             834.61,109.57 842.03,107.29 842.03,107.29
             842.93,107.11 843.35,105.87 843.31,103.56
             843.29,101.23 842.85,97.98 842.03,93.77
             841.84,92.79 841.58,91.97 841.27,91.33
             840.95,90.69 840.53,90.25 840.04,90.02
             839.43,89.65 838.97,89.33 838.64,89.04
             838.32,88.75 838.06,88.48 837.86,88.21
             837.75,86.87 837.95,84.82 838.45,82.09
             838.96,79.35 839.06,77.18 838.74,75.57
             838.36,73.53 837.55,72.05 836.37,71.11
             835.21,70.19 833.76,69.81 832.03,69.96
             832.03,69.96 831.84,69.98 831.84,69.98
             828.44,70.34 825.86,73.98 824.16,80.88
             822.45,87.78 820.30,91.51 817.69,92.07
             817.69,92.07 813.73,91.43 813.73,91.43
             812.65,91.76 811.64,92.06 810.72,92.33
             809.81,92.61 808.88,92.90 807.93,93.22
             807.13,93.10 806.00,93.04 804.52,93.05
             803.45,93.06 802.21,93.13 800.83,93.25
             800.32,93.29 799.80,93.34 799.26,93.40
             798.30,93.72 797.28,94.04 796.19,94.37
             794.68,94.24 793.00,94.19 791.10,94.22
             789.67,94.23 788.16,94.31 786.58,94.45
             786.08,94.49 785.58,94.54 785.07,94.60
             782.95,94.82 781.62,96.18 781.05,98.67
             780.48,101.16 780.66,104.65 781.54,109.12
             781.66,109.75 782.01,110.27 782.61,110.67
             783.17,111.07 783.95,111.37 784.93,111.54
             785.58,111.77 786.26,111.96 786.95,112.15
             787.63,112.32 788.40,112.54 789.22,112.81
             789.37,112.79 789.53,112.78 789.72,112.76
             790.33,112.71 791.18,112.65 792.27,112.59
             793.39,112.53 794.26,112.46 794.88,112.41
             795.04,112.40 795.18,112.38 795.30,112.37
             795.30,112.37 809.51,110.86 809.51,110.86
             810.04,110.80 810.80,110.59 811.78,110.24
             812.75,109.89 813.47,109.68 813.92,109.64
             813.92,109.64 813.99,109.63 813.99,109.63
             814.49,109.59 814.85,109.65 815.12,109.84
             815.39,110.01 815.55,110.32 815.64,110.74
             815.10,112.73 814.58,114.39 814.07,115.73
             813.56,117.08 813.08,118.17 812.62,119.00
             809.26,127.86 805.63,135.77 801.79,142.73
             797.91,149.68 793.76,155.76 789.29,160.95
             788.52,162.18 787.86,163.24 787.30,164.16
             786.74,165.08 786.29,165.84 785.95,166.44
             785.95,166.44 785.67,167.33 785.67,167.33
             785.68,167.34 785.70,167.37 785.72,167.38
             785.35,167.67 784.56,168.44 783.35,169.73
             782.07,171.08 780.31,173.02 778.10,175.54
             776.20,177.68 774.65,179.29 773.48,180.38
             772.30,181.47 771.45,182.04 770.91,182.10
             770.25,181.89 769.82,181.65 769.61,181.39
             769.97,178.49 770.28,176.02 770.54,173.99
             770.80,171.96 771.10,170.25 771.45,168.86
             772.58,160.44 773.22,155.44 773.37,153.85
             773.53,152.26 773.43,147.87 773.11,140.69
             772.94,138.20 772.82,136.15 772.77,134.51
             772.71,132.86 772.62,131.70 772.48,131.00
             771.94,128.19 770.66,126.13 768.66,124.82
             766.75,123.55 764.20,123.05 760.99,123.33
             760.84,123.34 760.69,123.36 760.54,123.38
             759.70,123.46 758.87,123.67 758.04,124.01
             757.23,124.35 756.37,124.79 755.47,125.30
             752.99,128.07 750.78,130.72 748.84,133.25
             746.89,135.78 745.16,138.09 743.65,140.19
             742.27,141.91 741.06,143.32 740.01,144.43
             738.95,145.55 737.98,146.47 737.12,147.21
             736.71,148.25 736.27,149.19 735.82,150.03
             735.37,150.86 734.90,151.49 734.44,151.89
             733.19,153.45 732.08,154.79 731.05,155.89
             730.02,157.00 729.15,157.89 728.43,158.54
             728.28,158.98 727.95,159.63 727.42,160.47
             727.20,160.92 726.48,161.68 725.25,162.74
             724.03,163.80 722.31,165.20 720.10,166.93
             718.43,168.26 717.18,169.53 716.38,170.76
             715.58,171.99 715.12,173.11 715.01,174.13
             715.01,174.13 714.47,174.93 714.47,174.93
             713.76,175.65 713.13,176.23 712.38,176.70
             711.63,177.18 711.07,177.54 710.74,177.79
             709.03,178.98 707.04,180.04 704.76,181.01
             702.47,181.96 699.86,182.71 696.94,183.23
             695.05,183.07 693.40,182.86 692.00,182.58
             690.59,182.31 689.54,181.98 688.85,181.63
             687.68,181.18 686.70,180.43 685.91,179.37
             685.12,178.32 684.58,177.05 684.29,175.58
             684.13,174.74 684.16,173.92 684.40,173.16
             684.64,172.37 684.98,171.72 685.41,171.17
             690.58,164.82 694.59,159.25 697.44,154.44
             700.29,149.63 701.91,145.49 702.32,142.02
             702.32,142.02 702.69,138.55 702.69,138.55
             702.88,136.82 703.04,135.55 703.15,134.74
             703.27,133.95 702.25,131.02 701.73,129.64
             700.97,128.08 700.22,126.77 699.51,125.70
             698.80,124.63 698.13,123.84 697.49,123.35
             696.56,122.58 695.48,122.09 694.24,121.87
             693.11,121.66 691.72,121.63 690.06,121.78
             689.89,121.79 689.71,121.81 689.53,121.83
             688.16,121.98 686.94,122.21 685.83,122.55
             684.74,122.88 683.77,123.23 682.91,123.61
             682.05,124.42 681.20,125.15 680.32,125.82
             679.45,126.48 678.65,127.17 677.96,127.89
             676.59,130.04 675.22,132.17 673.86,134.28
             672.49,136.40 671.18,138.34 669.89,140.12
             668.57,143.19 667.53,145.94 666.81,148.37
             666.11,150.82 665.56,152.84 665.17,154.45
             664.86,156.05 664.59,157.55 664.37,158.93
             664.13,160.32 664.00,161.51 663.96,162.52
             664.17,163.93 664.28,165.33 664.33,166.71
             664.37,168.10 664.41,169.51 664.46,170.94
             662.58,172.78 661.06,174.53 659.92,176.19
             658.78,177.85 657.90,179.46 657.27,181.03
             658.94,183.21 660.30,185.04 661.36,186.49
             662.42,187.95 663.20,189.19 663.72,190.21
             664.41,189.06 665.10,188.19 665.76,187.57
             666.41,186.97 667.04,186.63 667.66,186.57
             667.68,186.57 667.70,186.57 667.72,186.57
             668.44,186.50 669.18,186.80 669.91,187.46
             670.67,188.13 671.53,189.19 672.52,190.67
             673.73,192.46 674.83,194.01 675.86,195.30
             676.89,196.59 677.84,197.53 678.75,198.15
             680.47,199.47 682.50,200.40 684.80,200.94
             686.97,201.43 689.34,201.58 691.93,201.35
             692.11,201.34 692.30,201.32 692.49,201.30
             694.60,201.07 696.42,200.71 697.90,200.24
             699.39,199.75 700.67,199.10 701.75,198.27
             704.72,197.95 707.77,196.61 710.89,194.24
             714.03,191.87 717.61,188.08 721.15,183.70
             721.71,182.57 721.96,182.03 722.40,181.27
             722.82,180.52 723.15,179.87 723.35,179.34
             731.35,169.99 737.62,162.92 742.18,158.15
             746.74,153.37 749.51,150.92 750.49,150.82
             750.49,150.82 750.61,150.81 750.61,150.81
             751.54,150.73 752.24,150.88 752.73,151.28
             753.23,151.70 753.57,152.35 753.75,153.26
             754.00,154.52 754.28,156.36 754.60,158.75
             754.92,161.15 755.12,163.98 755.23,167.26
             755.42,171.03 755.44,173.90 755.25,175.89
             755.05,177.87 754.69,178.90 754.16,178.95
             754.16,178.95 754.14,178.95 754.14,178.95
             753.61,179.00 753.00,178.51 752.30,177.49
             751.60,176.47 750.69,176.02 749.59,176.12
             749.59,176.12 749.54,176.12 749.54,176.12
             747.34,176.36 745.50,177.25 744.03,178.81
             742.56,180.36 742.01,182.18 742.44,184.28
             742.50,184.63 742.98,185.68 743.87,187.45
             743.88,187.95 743.93,188.52 743.97,189.16
             744.01,189.80 744.09,190.39 744.21,190.96
             744.80,193.96 745.68,196.66 746.83,199.04
             748.00,201.41 749.34,203.49 750.85,205.26
             750.98,206.38 751.32,207.28 751.84,207.94
             752.36,208.59 753.06,208.99 753.92,209.11
             755.22,208.55 756.42,208.00 757.55,207.49
             758.69,206.98 759.82,206.44 760.96,205.89
             761.66,205.54 762.42,204.96 763.23,204.15
             764.04,203.35 764.85,202.23 765.65,200.78
             765.65,200.78 767.73,200.14 767.73,200.14
             769.78,197.98 771.62,196.05 773.26,194.35
             774.91,192.63 776.18,191.19 777.12,190.01
             779.33,188.28 781.35,186.67 783.18,185.18
             785.02,183.70 786.64,182.39 788.05,181.24
             788.56,180.32 789.15,179.48 789.81,178.69
             790.47,177.91 791.24,177.18 792.10,176.52
             792.66,175.39 793.17,174.44 793.63,173.67
             794.11,172.91 794.42,172.33 794.58,171.96
             797.92,168.03 801.18,164.14 804.37,160.30
             806.47,158.00 808.26,155.83 809.71,153.79
             811.16,151.74 812.29,149.81 813.10,148.01
             813.10,148.01 814.12,147.25 814.12,147.25
             814.78,147.47 815.14,147.75 815.21,148.10
             814.68,150.09 814.15,151.97 813.64,153.74
             813.66,156.53 813.69,159.30 813.78,162.09
             813.79,163.73 813.79,165.16 813.80,166.38
             813.81,167.59 813.88,168.55 814.02,169.24
             813.94,169.68 813.82,170.19 813.62,170.79
             813.30,172.68 813.27,175.14 813.56,178.14
             813.85,181.15 814.39,184.68 815.18,188.75
             815.91,192.46 817.26,195.14 819.27,196.78
             821.18,198.37 823.72,199.03 826.89,198.75
             827.01,198.74 827.12,198.73 827.24,198.72
             828.76,198.56 830.31,197.98 831.90,196.99
             833.48,196.00 835.00,194.50 836.46,192.48
             837.56,191.01 838.64,189.50 839.69,187.96
             840.75,186.41 841.82,184.87 842.90,183.33
             844.02,181.92 845.06,180.67 846.01,179.61
             846.97,178.55 847.73,177.59 848.35,176.74
             850.00,175.35 851.42,174.05 852.57,172.85
             853.73,171.66 854.62,170.63 855.22,169.79
             855.22,169.79 848.89,160.59 848.89,160.59 Z" />
  <path id="path34"
        fill="#ffeb4b" stroke="#2c313a" stroke-width="8"
        d="M 205.40,268.61
           C 205.40,268.61 201.85,230.00 201.85,230.00
             201.85,230.00 76.92,241.23 76.92,241.23
             66.65,242.16 59.07,251.22 59.97,261.49
             59.97,261.49 61.69,281.18 61.69,281.18
             61.69,281.18 205.40,268.61 205.40,268.61 Z" />
  <path id="path35"
        fill="#ffeb4b" stroke="#2c313a" stroke-width="8"
        d="M 141.66,312.30
           C 141.66,312.30 144.78,348.02 144.78,348.02
             144.78,348.02 174.76,345.40 174.76,345.40
             174.76,345.40 179.59,400.56 179.59,400.56
             179.59,400.56 111.38,406.53 111.38,406.53
             111.38,406.53 101.50,293.65 101.50,293.65
             101.50,293.65 63.08,297.01 63.08,297.01
             63.08,297.01 74.33,425.61 74.33,425.61
             75.23,435.90 84.30,443.51 94.59,442.61
             94.59,442.61 201.98,433.21 201.98,433.21
             212.05,432.33 219.50,423.44 218.59,413.37
             218.59,413.37 210.65,324.87 210.65,324.87
             209.73,314.58 200.63,306.99 190.34,307.92
             190.34,307.92 141.66,312.30 141.66,312.30 Z" />
  <path id="path36" stroke="#2c313a" stroke-width="8"
        fill="#ffeb4b"
        d="M 277.34,392.01
           C 277.34,392.01 275.21,369.07 275.21,369.07
             275.21,369.07 347.37,362.75 347.37,362.75
             347.37,362.75 349.38,385.70 349.38,385.70
             349.38,385.70 277.34,392.01 277.34,392.01 Z
           M 231.03,282.31
           C 231.03,282.31 234.06,316.98 234.06,316.98
             234.06,316.98 342.54,307.49 342.54,307.49
             342.54,307.49 344.55,330.54 344.55,330.54
             344.55,330.54 254.71,338.40 254.71,338.40
             244.42,339.30 236.80,348.37 237.70,358.66
             237.70,358.66 242.28,410.92 242.28,410.92
             243.18,421.20 252.25,428.82 262.54,427.91
             262.54,427.91 369.27,418.58 369.27,418.58
             379.58,417.67 387.20,408.57 386.26,398.27
             386.26,398.27 376.33,288.32 376.33,288.32
             375.40,278.05 366.34,270.47 356.08,271.37
             356.08,271.37 231.03,282.31 231.03,282.31 Z" />
  <path id="path37" stroke="#2c313a" stroke-width="8"
        fill="#ffeb4b"
        d="M 411.59,414.87
           C 411.59,414.87 445.83,411.88 445.83,411.88
             445.83,411.88 435.98,299.31 435.98,299.31
             435.98,299.31 458.20,297.36 458.20,297.36
             458.20,297.36 468.05,409.93 468.05,409.93
             468.05,409.93 498.46,407.27 498.46,407.27
             498.46,407.27 488.61,294.70 488.61,294.70
             488.61,294.70 510.46,292.79 510.46,292.79
             510.46,292.79 520.30,405.36 520.30,405.36
             520.30,405.36 555.38,402.30 555.38,402.30
             555.38,402.30 544.12,273.69 544.12,273.69
             543.22,263.40 534.15,255.79 523.87,256.69
             523.87,256.69 417.34,266.01 417.34,266.01
             407.05,266.91 399.44,275.98 400.34,286.27
             400.34,286.27 411.59,414.87 411.59,414.87 Z" />
  <path id="path38" stroke="#2c313a" stroke-width="8"
        fill="#ffeb4b"
        d="M 566.80,252.94
           C 566.80,252.94 604.31,249.66 604.31,249.66
             604.31,249.66 617.19,396.89 617.19,396.89
             617.19,396.89 579.68,400.17 579.68,400.17
             579.68,400.17 566.80,252.94 566.80,252.94 Z" />
  <path id="path39"
        fill="#ffeb4b" stroke="#2c313a" stroke-width="8"
        d="M 753.55,236.60
           C 753.55,236.60 647.02,245.92 647.02,245.92
             636.73,246.82 629.12,255.89 630.02,266.18
             630.02,266.18 641.27,394.78 641.27,394.78
             641.27,394.78 678.80,391.50 678.80,391.50
             678.80,391.50 668.96,278.93 668.96,278.93
             668.96,278.93 736.97,272.98 736.97,272.98
             736.97,272.98 746.82,385.55 746.82,385.55
             746.82,385.55 785.07,382.20 785.07,382.20
             785.07,382.20 773.81,253.60 773.81,253.60
             772.91,243.31 763.84,235.70 753.55,236.60 Z" />
  <path id="path40"
        fill="#ffeb4b" stroke="#2c313a" stroke-width="8"
        d="M 842.57,341.24
           C 842.57,341.24 835.84,264.33 835.84,264.33
             835.84,264.33 908.11,258.00 908.11,258.00
             908.11,258.00 914.84,334.91 914.84,334.91
             914.84,334.91 842.57,341.24 842.57,341.24 Z
           M 806.54,361.05
           C 807.44,371.34 815.84,379.31 826.13,378.41
             826.13,378.41 917.96,370.56 917.96,370.56
             917.96,370.56 919.17,384.46 919.17,384.46
             919.17,384.46 856.49,389.94 856.49,389.94
             856.49,389.94 859.69,425.05 859.69,425.05
             859.69,425.05 941.05,417.94 941.05,417.94
             951.33,417.04 958.94,407.97 958.04,397.68
             958.04,397.68 944.14,238.70 944.14,238.70
             943.24,228.41 934.17,220.80 923.88,221.70
             923.88,221.70 814.05,231.31 814.05,231.31
             803.76,232.21 796.15,241.28 797.05,251.57
             797.05,251.57 806.54,361.05 806.54,361.05 Z" />
  <path id="path50"
        fill="#2c313a"
        d="M 242.15,525.97
           C 242.11,527.12 242.10,528.37 242.11,529.73
             242.11,529.73 241.36,529.80 241.36,529.80
             241.09,529.81 240.85,529.83 240.63,529.85
             233.78,530.42 227.64,530.08 222.17,528.84
             216.70,527.59 212.12,525.50 208.43,522.58
             205.87,520.56 203.76,518.05 202.12,515.06
             200.47,512.08 199.49,508.60 199.15,504.61
             198.86,501.05 199.27,497.73 200.40,494.66
             201.53,491.60 203.11,488.88 205.15,486.50
             208.10,483.05 212.22,480.16 217.51,477.85
             222.78,475.53 228.53,474.11 234.72,473.60
             235.03,473.57 235.39,473.55 235.77,473.51
             236.17,473.48 236.44,473.46 236.61,473.44
             236.68,473.93 236.81,474.72 236.98,475.79
             237.16,476.87 237.35,478.03 237.57,479.28
             237.29,479.31 237.04,479.33 236.84,479.34
             236.66,479.36 236.41,479.38 236.13,479.40
             232.62,479.70 229.03,480.38 225.33,481.45
             221.63,482.51 218.49,483.91 215.88,485.65
             212.51,487.92 210.00,490.68 208.36,493.92
             206.70,497.17 206.02,500.58 206.32,504.15
             206.62,507.85 207.76,511.15 209.72,514.03
             211.69,516.92 214.60,519.25 218.48,521.00
             221.65,522.46 225.14,523.41 228.95,523.86
             232.77,524.31 236.52,524.39 240.22,524.08
             240.40,524.07 240.67,524.05 241.03,524.02
             241.40,523.99 241.79,523.93 242.21,523.88
             242.20,524.12 242.17,524.82 242.15,525.97" />
  <path id="path51"
        fill="#2c313a"
        d="M 341.16,520.67
           C 340.83,520.70 339.05,520.83 335.84,521.07
             332.63,521.31 328.53,521.63 323.55,522.05
             320.26,522.32 317.14,522.59 314.18,522.87
             311.24,523.14 308.73,523.36 306.69,523.54
             306.34,518.81 306.01,514.02 305.65,509.18
             305.29,504.32 304.91,499.57 304.52,494.90
             303.87,487.11 303.35,481.17 302.95,477.08
             302.55,473.00 302.27,470.13 302.12,468.50
             302.12,468.50 309.05,467.91 309.05,467.91
             309.29,471.45 309.58,475.55 309.94,480.18
             310.30,484.82 310.60,488.61 310.86,491.58
             311.45,498.79 311.96,504.80 312.38,509.63
             312.82,514.46 313.05,517.00 313.07,517.28
             314.22,517.19 315.60,517.07 317.23,516.95
             318.85,516.83 320.33,516.72 321.65,516.61
             326.67,516.20 331.03,515.81 334.73,515.46
             338.45,515.11 340.43,514.92 340.69,514.90
             340.69,514.90 341.16,520.67 341.16,520.67 Z" />
  <path id="path52"
        fill="#2c313a"
        d="M 411.11,489.90
           C 411.11,489.90 411.12,489.86 411.12,489.86
             412.20,486.95 413.54,483.21 415.16,478.65
             416.78,474.08 418.19,470.23 419.34,467.10
             419.34,467.10 419.51,467.05 419.51,467.05
             421.65,470.89 423.70,474.55 425.67,478.07
             427.61,481.58 429.47,484.96 431.24,488.19
             431.24,488.19 431.25,488.22 431.25,488.22
             431.25,488.22 411.11,489.90 411.11,489.90 Z
           M 441.45,492.09
           C 435.07,481.01 428.57,469.57 421.95,457.75
             421.95,457.75 416.48,458.19 416.48,458.19
             411.82,470.96 407.30,483.14 402.95,494.73
             398.59,506.32 396.10,512.85 395.49,514.34
             395.49,514.34 401.37,516.86 401.37,516.86
             401.52,516.43 402.23,514.40 403.55,510.75
             404.86,507.11 406.73,501.96 409.15,495.32
             409.15,495.32 434.06,493.26 434.06,493.26
             437.29,498.98 439.92,503.67 441.92,507.32
             443.91,510.96 444.99,512.93 445.12,513.22
             445.12,513.22 451.38,509.37 451.38,509.37
             451.13,508.92 447.81,503.16 441.45,492.09" />
  <path id="path53"
        fill="#2c313a"
        d="M 539.03,496.15
           C 537.85,498.39 536.16,500.27 533.97,501.78
             531.97,503.16 529.63,504.27 526.97,505.11
             524.29,505.96 521.30,506.52 517.99,506.80
             516.19,506.95 514.32,507.05 512.39,507.10
             510.47,507.14 509.33,507.17 509.03,507.17
             509.03,507.17 508.20,501.27 508.20,501.27
             508.60,501.29 509.70,501.30 511.51,501.30
             513.31,501.31 515.43,501.21 517.88,501.00
             519.35,500.88 521.27,500.52 523.58,499.95
             525.91,499.36 527.67,498.72 528.89,498.01
             530.48,497.08 531.65,496.01 532.44,494.81
             533.24,493.62 533.57,492.16 533.42,490.42
             533.27,488.58 532.70,487.06 531.70,485.86
             530.71,484.66 529.15,483.56 527.00,482.54
             525.64,481.88 523.85,481.16 521.66,480.37
             519.48,479.59 517.51,478.76 515.74,477.88
             512.74,476.42 510.54,474.74 509.16,472.81
             507.77,470.89 506.97,468.70 506.77,466.24
             506.56,463.71 506.93,461.47 507.89,459.53
             508.84,457.59 510.15,455.88 511.81,454.42
             513.49,452.95 515.61,451.78 518.15,450.90
             520.69,450.03 523.55,449.46 526.72,449.20
             528.46,449.06 530.23,448.95 532.02,448.91
             533.80,448.85 534.84,448.83 535.08,448.84
             535.08,448.84 536.17,454.75 536.17,454.75
             535.91,454.75 534.88,454.74 533.07,454.73
             531.26,454.71 529.05,454.81 526.41,455.03
             524.83,455.16 523.24,455.46 521.60,455.94
             519.96,456.42 518.54,457.08 517.34,457.89
             516.27,458.62 515.38,459.58 514.70,460.77
             514.01,461.96 513.72,463.31 513.84,464.82
             513.95,466.17 514.48,467.43 515.41,468.59
             516.35,469.78 518.00,470.94 520.38,472.07
             521.59,472.66 523.17,473.32 525.14,474.05
             527.11,474.79 529.05,475.60 530.95,476.49
             533.89,477.89 536.15,479.55 537.74,481.55
             539.33,483.53 540.24,485.87 540.46,488.55
             540.70,491.38 540.22,493.91 539.03,496.15" />
  <path id="path54"
        fill="#2c313a"
        d="M 634.08,488.25
           C 632.91,490.49 631.22,492.37 629.03,493.87
             627.03,495.25 624.69,496.37 622.03,497.21
             619.35,498.07 616.36,498.62 613.04,498.89
             611.25,499.04 609.38,499.14 607.45,499.19
             605.52,499.25 604.39,499.27 604.09,499.26
             604.09,499.26 603.26,493.36 603.26,493.36
             603.66,493.39 604.76,493.40 606.56,493.40
             608.36,493.40 610.49,493.30 612.94,493.10
             614.41,492.98 616.32,492.63 618.64,492.05
             620.97,491.46 622.74,490.82 623.95,490.11
             625.53,489.18 626.71,488.11 627.50,486.92
             628.30,485.72 628.62,484.25 628.48,482.52
             628.32,480.68 627.75,479.17 626.76,477.96
             625.77,476.75 624.21,475.65 622.07,474.64
             620.69,473.98 618.90,473.27 616.72,472.48
             614.54,471.69 612.56,470.86 610.80,469.98
             607.80,468.52 605.60,466.82 604.21,464.91
             602.82,463.00 602.04,460.80 601.83,458.33
             601.63,455.81 601.99,453.57 602.94,451.63
             603.90,449.68 605.21,447.98 606.87,446.52
             608.55,445.05 610.67,443.88 613.20,443.01
             615.75,442.12 618.61,441.56 621.77,441.30
             623.52,441.15 625.28,441.05 627.07,441.00
             628.87,440.95 629.89,440.93 630.14,440.94
             630.14,440.94 631.23,446.85 631.23,446.85
             630.97,446.85 629.95,446.84 628.13,446.83
             626.32,446.81 624.10,446.91 621.47,447.12
             619.91,447.25 618.29,447.56 616.66,448.04
             615.01,448.53 613.60,449.18 612.40,450.00
             611.33,450.72 610.44,451.68 609.76,452.86
             609.06,454.06 608.78,455.41 608.91,456.92
             609.02,458.26 609.54,459.52 610.47,460.70
             611.40,461.88 613.05,463.04 615.43,464.17
             616.64,464.76 618.22,465.41 620.20,466.15
             622.16,466.89 624.10,467.70 626.01,468.59
             628.95,469.98 631.21,471.66 632.80,473.65
             634.39,475.62 635.30,477.96 635.52,480.65
             635.76,483.48 635.28,486.01 634.08,488.25" />
  <path id="path55"
        fill="#2c313a"
        d="M 700.64,451.28
           C 700.18,446.21 699.69,440.94 699.15,435.48
             699.15,435.48 706.09,434.91 706.09,434.91
             706.36,438.84 706.69,443.40 707.09,448.61
             707.46,453.81 707.80,458.06 708.07,461.36
             708.77,469.70 709.33,476.15 709.77,480.72
             710.20,485.28 710.51,488.39 710.67,490.03
             710.67,490.03 703.74,490.61 703.74,490.61
             703.62,488.96 703.44,486.01 703.13,481.78
             702.83,477.56 702.36,471.49 701.70,463.58
             701.44,460.46 701.09,456.35 700.64,451.28" />
  <path id="path56"
        fill="#2c313a"
        d="M 819.68,478.46
           C 819.65,479.61 819.64,480.86 819.63,482.22
             819.43,482.24 819.17,482.26 818.90,482.28
             818.63,482.30 818.39,482.32 818.17,482.34
             811.32,482.91 805.17,482.57 799.70,481.33
             794.25,480.08 789.67,477.99 785.97,475.07
             783.42,473.04 781.30,470.54 779.66,467.55
             778.02,464.57 777.03,461.09 776.69,457.11
             776.40,453.53 776.81,450.22 777.94,447.15
             779.06,444.10 780.66,441.37 782.68,438.98
             785.65,435.54 789.76,432.65 795.05,430.34
             800.33,428.02 806.06,426.60 812.26,426.09
             812.26,426.09 813.32,426.00 813.32,426.00
             813.70,425.97 813.98,425.95 814.16,425.93
             814.22,426.42 814.34,427.20 814.53,428.28
             814.69,429.36 814.89,430.53 815.11,431.78
             814.82,431.80 814.58,431.82 814.38,431.84
             814.38,431.84 813.67,431.90 813.67,431.90
             810.16,432.19 806.56,432.87 802.86,433.93
             799.18,435.00 796.02,436.41 793.43,438.14
             790.05,440.41 787.54,443.16 785.88,446.41
             784.23,449.66 783.55,453.06 783.86,456.63
             784.16,460.33 785.30,463.63 787.26,466.53
             789.22,469.41 792.15,471.74 796.02,473.49
             799.19,474.94 802.68,475.90 806.49,476.35
             810.31,476.80 814.06,476.88 817.77,476.57
             817.93,476.56 818.20,476.53 818.57,476.51
             818.93,476.47 819.32,476.44 819.74,476.37
             819.74,476.62 819.72,477.31 819.68,478.46" />
</svg>